<?xml version="1.0" encoding="UTF-8"?>
<svg width="192px" height="256px" viewBox="0 0 192 256" version="1.1" xmlns="http://www.w3.org/2000/svg" xmlns:xlink="http://www.w3.org/1999/xlink">
    <!-- Generator: Sketch 43 (38999) - http://www.bohemiancoding.com/sketch -->
    <title>if_arrow_up_1303883</title>
    <desc>Created with Sketch.</desc>
    <defs></defs>
    <g id="Page-1" stroke="none" stroke-width="1" fill="none" fill-rule="evenodd">
        <g id="if_arrow_up_1303883" fill-rule="nonzero" fill="#000000">
            <path d="M190.138,91.475 L100.538,1.875 C98.038,-0.625 93.987,-0.625 91.487,1.875 L1.887,91.475 C-0.613,93.975 -0.613,98.026 1.887,100.526 C4.387,103.026 8.631,103.026 11.131,100.526 L90,21.85 L90,249.6 C90,253.135 92.466,256 96,256 C99.534,256 102,253.135 102,249.6 L102,21.85 L180.881,100.526 C182.131,101.776 183.873,102.401 185.51,102.401 C187.147,102.401 188.836,101.776 190.086,100.526 C192.586,98.025 192.638,93.975 190.138,91.475 Z" id="Shape"></path>
        </g>
    </g>
</svg>