<?xml version="1.0" encoding="UTF-8"?>
<svg width="170px" height="227px" viewBox="0 0 170 227" version="1.1" xmlns="http://www.w3.org/2000/svg" xmlns:xlink="http://www.w3.org/1999/xlink">
    <!-- Generator: Sketch 43 (38999) - http://www.bohemiancoding.com/sketch -->
    <title>if_arrow_up_1303883</title>
    <desc>Created with Sketch.</desc>
    <defs></defs>
    <g id="Page-1" stroke="none" stroke-width="1" fill="none" fill-rule="evenodd">
        <g id="if_arrow_up_1303883" transform="translate(85.000000, 113.500000) scale(-1, -1) rotate(180.000000) translate(-85.000000, -113.500000) " fill-rule="nonzero" fill="#000000">
            <path d="M168.351354,81.1125977 L89.0180208,1.66259766 C86.8044792,-0.554199219 83.2176562,-0.554199219 81.0041146,1.66259766 L1.67078125,81.1125977 C-0.542760417,83.3293945 -0.542760417,86.9214922 1.67078125,89.1382891 C3.88432292,91.3550859 7.64203125,91.3550859 9.85557292,89.1382891 L79.6875,19.3748047 L79.6875,221.325 C79.6875,224.459551 81.8709375,227 85,227 C88.1290625,227 90.3125,224.459551 90.3125,221.325 L90.3125,134.78125 L90.3125,19.3748047 L160.155052,89.1382891 C161.261823,90.2466875 162.804219,90.8008867 164.253646,90.8008867 C165.703073,90.8008867 167.198542,90.2466875 168.305312,89.1382891 C170.518854,86.9206055 170.564896,83.3293945 168.351354,81.1125977 Z" id="Shape"></path>
        </g>
    </g>
</svg>