<?xml version="1.0" encoding="UTF-8"?>
<svg width="42px" height="36px" viewBox="0 0 42 36" version="1.1" xmlns="http://www.w3.org/2000/svg" xmlns:xlink="http://www.w3.org/1999/xlink">
    <!-- Generator: Sketch 43 (38999) - http://www.bohemiancoding.com/sketch -->
    <title>if_arrow-left_1894660</title>
    <desc>Created with Sketch.</desc>
    <defs></defs>
    <g id="Page-1" stroke="none" stroke-width="1" fill="none" fill-rule="evenodd">
        <g id="if_arrow-left_1894660" fill-rule="nonzero" fill="#FFFFFF">
            <g id="expanded">
                <path d="M16.1304348,36 C15.9227681,36 15.715,35.9115849 15.5565362,35.7347547 L0.237695652,18.6404151 C0.237289855,18.6399623 0.236884058,18.6393962 0.236478261,18.6389434 C0.236478261,18.6388302 0.236275362,18.638717 0.236173913,18.6386038 C0.0925217391,18.4775094 0.0144057971,18.2711321 0.00182608696,18.0607925 C-0.00172463768,18.0022642 -0.000202898551,17.9430566 0.0065942029,17.8843019 C0.0262753623,17.7130189 0.0897826087,17.5468302 0.197115942,17.4082642 C0.211521739,17.3896981 0.226434783,17.3718113 0.242057971,17.354717 L15.5565362,0.265245283 C15.8734638,-0.0884150943 16.3873043,-0.0884150943 16.7042319,0.265245283 C17.0212609,0.61890566 17.0212609,1.19230189 16.7042319,1.54596226 L2.77088406,17.0943396 L41.1884058,17.0943396 C41.6366087,17.0943396 42,17.4998491 42,18 C42,18.5001509 41.6366087,18.9056604 41.1884058,18.9056604 L2.77088406,18.9056604 L16.7042319,34.4539245 C16.8626957,34.6308679 16.9419275,34.8624906 16.9419275,35.0943396 C16.9419275,35.3261887 16.8626957,35.5579245 16.7042319,35.7347547 C16.5458696,35.9115849 16.3381014,36 16.1304348,36 Z" id="Shape"></path>
            </g>
        </g>
    </g>
</svg>