<?xml version="1.0" encoding="UTF-8"?>
<svg width="474px" height="321px" viewBox="0 0 474 321" version="1.1" xmlns="http://www.w3.org/2000/svg" xmlns:xlink="http://www.w3.org/1999/xlink">
    <!-- Generator: Sketch 43 (38999) - http://www.bohemiancoding.com/sketch -->
    <title>Group 3</title>
    <desc>Created with Sketch.</desc>
    <defs></defs>
    <g id="Page-1" stroke="none" stroke-width="1" fill="none" fill-rule="evenodd">
        <g id="Group-3">
            <g id="if_vector_65_07_473788">
                <path d="M128.964115,81.526546 C129.104159,81.7051092 129.625953,82.2158829 129.40707,82.4422013 C129.299184,82.5491316 128.90291,81.887825 128.809548,81.8172302 C128.708923,81.7445592 128.900836,81.5535381 128.964115,81.526546 Z M128.802286,81.461142 C128.802286,81.461142 128.809548,81.4601039 128.810585,81.4652947 C128.758717,81.3282578 128.645644,81.1247789 128.532571,81.0240775 C128.345846,80.8662775 128.509749,81.4030052 128.802286,81.461142 Z M104.925268,74.2210283 C104.912819,74.2407533 104.874437,74.3238059 104.925268,74.2210283 L104.925268,74.2210283 Z M104.925268,74.2210283 C104.949127,74.1587388 104.549742,74.2480204 104.496836,74.3611796 C104.481276,74.3975152 104.866138,74.3456073 104.925268,74.2210283 Z M134.03579,83.7720817 C134.062761,83.7046014 133.592835,83.6215488 133.551341,83.6340067 C133.584536,83.7253646 133.965249,83.9392251 134.03579,83.7720817 Z M108.336122,128.946488 C108.349608,128.959984 108.354795,128.959984 108.357907,128.951679 C108.375542,128.936106 108.385916,128.923648 108.382804,128.923648 C108.380729,128.943373 108.365168,128.950641 108.336122,128.946488 Z M102.441817,97.0106722 L102.441817,97.0106722 C102.44078,96.6255156 102.072516,97.2795552 102.07459,97.2795552 C102.338081,97.3491117 102.441817,97.2764407 102.441817,97.0106722 Z M102.441817,97.0096341 C102.441817,97.0106722 102.441817,97.0106722 102.441817,97.0096341 C102.441817,97.0490841 102.447004,97.2432196 102.441817,97.0096341 Z M104.126497,80.5683262 C104.016537,80.5704025 103.576694,80.389763 103.603665,80.4956551 C103.672132,80.7676525 104.078778,80.7354696 104.21986,80.6036236 C104.199113,80.5631354 104.169029,80.5506775 104.126497,80.5683262 C104.157618,80.5683262 103.96778,80.573517 104.126497,80.5683262 Z M105.127554,126.732097 L105.127554,126.732097 C105.276934,126.763242 105.206394,126.748708 105.127554,126.732097 Z M101.988489,97.3200433 L101.988489,97.3200433 C102.005087,97.3127762 102.028946,97.3023946 102.07459,97.2795552 C102.067329,97.2764407 102.013386,97.3055091 101.988489,97.3200433 Z M104.024835,79.3567958 C104.096414,79.4346577 104.628582,79.7637538 104.704309,79.5685801 C104.762402,79.430505 104.104713,79.3111169 104.024835,79.3567958 Z M98.8172658,92.7947127 C98.7902943,92.7293087 98.8172658,92.7002403 98.8961055,92.7075074 C98.8058547,92.4697692 97.2197245,92.2403363 97.1678562,92.4988377 C97.1761551,92.4562732 97.5776152,92.960818 97.5215975,93.0542522 C97.4095622,93.2452733 96.9811306,93.0874732 96.836937,93.0719009 C96.6616224,93.0542522 96.5672222,93.2348917 96.771583,93.2535785 C97.0153637,93.2753798 97.6896506,93.1030456 97.7996112,93.4186456 C97.8680773,93.6148575 98.0081215,93.3418219 98.0516908,93.2951048 C98.2135196,93.1217325 98.3971331,93.3179443 98.4998322,93.1819456 C98.66996,92.9639324 99.0361497,93.2888759 99.1761939,93.1788311 C99.4894779,92.9307114 98.9427869,92.8507732 98.8172658,92.7947127 Z M96.771583,93.2525404 C96.7249016,93.2473496 96.993579,93.2733035 96.771583,93.2525404 L96.771583,93.2525404 Z M107.318468,125.705359 C107.263487,125.646184 107.358925,125.758305 107.318468,125.705359 L107.318468,125.705359 Z M100.105672,93.0708627 C100.087,92.8071706 99.5288978,93.3438983 99.8629292,93.3304022 C100.254016,93.3200206 100.784109,93.0874732 100.105672,93.0708627 Z M96.7560225,92.3472666 C96.8078908,92.343114 96.8441985,92.3202745 96.8690953,92.27771 C96.8919173,92.1354824 95.3991498,91.3734744 95.217611,91.2800402 C94.5256889,90.9208375 93.4779508,90.5502151 93.0132115,91.4897481 C93.2144602,91.5520376 93.9613626,90.8035257 94.107631,91.1502705 C94.0775474,91.2073691 94.0256792,91.2520099 93.9675868,91.2800402 C93.9489142,91.3786652 95.0827536,91.5541139 95.1688549,91.6371665 C95.3503937,91.8105389 95.1532944,92.0877271 95.550605,92.0524297 C95.948953,92.0119416 95.439607,92.4334337 95.439607,92.4375863 C95.4593169,92.5133719 96.6273893,92.3939837 96.7539478,92.3472666 C96.7166027,92.3607627 96.4935693,92.4469298 96.7560225,92.3472666 Z M95.8099461,89.9740375 C95.8255066,90.0508612 95.8037219,89.951198 95.8099461,89.9740375 L95.8099461,89.9740375 Z M95.8462539,90.4329033 C95.8711506,90.4256362 95.8130582,90.0093348 95.8099461,89.9740375 C95.7715636,89.7726348 95.4313081,90.483773 95.8462539,90.4329033 Z M95.1252856,93.1809075 C94.8939533,93.2431969 95.3918882,93.5110417 95.5983238,93.434218 C95.6782008,93.4009969 95.7622274,93.5079272 95.8286187,93.4176075 C95.9852607,93.211014 95.1937516,93.1601443 95.1252856,93.1809075 Z M95.1252856,93.1809075 C95.3732157,93.1155035 95.083791,93.1892127 95.1252856,93.1809075 L95.1252856,93.1809075 Z M141.661456,99.4648777 C141.658344,99.4544961 141.658344,99.4461909 141.658344,99.4389237 C141.656269,99.5479303 141.653157,99.6600514 141.653157,99.7700961 C141.656269,99.8033172 141.661456,99.7213027 141.661456,99.4648777 Z M32.337763,62.3476155 L30.1561855,66.3414093 L34.4550239,66.3414093 L32.337763,62.3476155 Z M50.4885293,64.7021578 C50.6358351,64.5889986 50.7084506,64.3855196 50.7084506,64.0948354 L50.7084506,62.9144498 C50.7084506,62.6299945 50.6358351,62.42963 50.4885293,62.3143945 C50.3432983,62.2012352 50.0735835,62.1420602 49.6773103,62.1420602 L44.5444308,62.1420602 L44.5444308,64.8734539 L49.6762729,64.8734539 C50.0735835,64.874492 50.3432983,64.8163552 50.4885293,64.7021578 Z M67.1019215,65.2544579 C67.1019215,64.2526354 66.830132,63.4916656 66.286553,62.9746629 C65.7388245,62.4576603 64.9369418,62.1970826 63.8705311,62.1970826 L59.8237723,62.1970826 L59.8237723,68.4146107 L62.7781863,68.4146107 C64.3477188,68.4146107 65.463923,68.1675291 66.1195373,67.6795949 C66.7751517,67.1916606 67.1019215,66.3798211 67.1019215,65.2544579 Z M33.370978,143.947871 L38.0194082,143.947871 L38.0194082,139.716339 L33.370978,139.716339 L33.370978,143.947871 Z M13.8851236,143.947871 L18.5304417,143.947871 L18.5304417,139.716339 L13.8851236,139.716339 L13.8851236,143.947871 Z M95.516372,82.5563987 L95.5174093,82.5563987 C95.516372,82.5563987 95.5184467,82.5563987 95.516372,82.5563987 L95.516372,82.5563987 Z M23.6280508,143.947871 L28.2754437,143.947871 L28.2754437,139.716339 L23.6280508,139.716339 L23.6280508,143.947871 Z M140.291098,105.10519 L140.291098,105.117648 C140.299397,105.066778 140.332592,104.804124 140.291098,105.10519 Z M95.6699019,80.5973946 C95.8275813,80.514342 95.6450052,80.6077762 95.6699019,80.5973946 L95.6699019,80.5973946 Z M107.070538,125.485269 C106.989623,125.511223 106.905597,125.762457 107.032155,125.711588 C107.103733,125.682519 107.261413,125.543406 107.342327,125.558978 L107.342327,125.555864 C107.266599,125.465544 107.178423,125.438552 107.070538,125.485269 Z M135.712171,143.947871 L140.358526,143.947871 L140.358526,139.716339 L135.712171,139.716339 L135.712171,143.947871 Z M116.225279,143.947871 L120.86956,143.947871 L120.86956,139.716339 L116.225279,139.716339 L116.225279,143.947871 Z M125.968206,143.947871 L130.614562,143.947871 L130.614562,139.716339 L125.968206,139.716339 L125.968206,143.947871 Z M141.658344,99.4378856 C141.658344,99.4108935 141.661456,99.3839014 141.661456,99.3579474 C141.654195,99.2479027 141.640709,99.1368198 141.633447,99.0246987 C141.642784,99.1606974 141.650045,99.2987724 141.658344,99.4378856 Z M132.231813,82.5719711 C132.223514,82.5615895 132.216253,82.5543224 132.208991,82.5460171 C132.211066,82.5626277 132.224552,82.5730092 132.240112,82.5854671 C132.240112,82.5782 132.237,82.5750856 132.231813,82.5719711 Z M57.7417818,143.947871 L62.3891746,143.947871 L62.3891746,139.716339 L57.7417818,139.716339 L57.7417818,143.947871 L57.7417818,143.947871 Z M67.4867837,143.947871 L72.1341766,143.947871 L72.1341766,139.716339 L67.4867837,139.716339 L67.4867837,143.947871 Z M47.9978172,143.947871 L52.6452101,143.947871 L52.6452101,139.716339 L47.9978172,139.716339 L47.9978172,143.947871 L47.9978172,143.947871 Z M91.8544754,143.947871 L96.5008309,143.947871 L96.5008309,139.716339 L91.8544754,139.716339 L91.8544754,143.947871 Z M82.1094734,143.947871 L86.7558289,143.947871 L86.7558289,139.716339 L82.1094734,139.716339 L82.1094734,143.947871 Z M101.597403,143.947871 L106.245833,143.947871 L106.245833,139.716339 L101.597403,139.716339 L101.597403,143.947871 Z M89.434304,102.684206 C89.3357544,102.629183 89.5058822,103.116079 89.465425,103.146186 C89.6127307,103.076629 89.5370031,102.962432 89.6293285,102.860692 C89.6345154,102.865883 89.4944712,102.71535 89.434304,102.684206 Z M113.819631,73.3105638 C113.964862,73.2503506 114.233539,73.5576454 114.425452,73.4185322 C114.297856,73.2731901 114.058225,73.2898006 114.02088,73.0697111 C113.972123,72.7779887 114.101794,72.7063558 113.724193,72.5662045 C113.745978,72.549594 113.344518,72.3762216 113.237669,72.3523439 C112.944095,72.2942071 113.190988,72.1415979 113.077915,71.9837979 C113.011524,71.8882873 112.690978,71.9723781 112.618363,71.9786071 C112.197193,72.0087137 111.765649,71.8550663 111.334106,71.8779058 C110.771854,71.9111268 110.2262,72.0689268 109.657725,72.0253242 C108.801899,71.9619965 107.086098,71.8830965 106.383802,72.4727703 C106.423222,72.4758847 106.546669,72.4675795 106.570528,72.5226019 C106.423222,72.6326466 106.311187,72.543365 106.159732,72.6897453 C106.236497,72.6160361 106.256206,72.6887071 106.226123,72.7105085 C106.712647,72.9171019 108.821609,71.9952176 108.841319,72.2630624 C108.84858,72.3793361 107.719928,72.4104808 107.788394,72.6866308 C107.825739,72.8350874 108.571604,72.7063558 108.704387,72.7343861 C109.257302,72.845469 108.766628,73.3136782 108.879701,73.4600585 C108.898374,73.4818598 109.454401,73.4102269 109.463737,73.5701033 C109.392159,73.437219 108.225124,74.0009388 109.102735,73.8535204 C109.171201,73.844177 109.296722,73.6905296 109.352739,73.7341322 C109.534278,73.8846651 109.292572,74.0144349 109.163939,74.0092441 C108.202302,73.9614888 109.125557,75.9651337 109.975158,75.8260205 C110.420187,75.756464 110.700276,76.3762443 110.972065,75.7190903 C111.06854,75.487581 111.101736,75.2218126 111.36004,75.1055389 C111.54884,75.0193718 111.341367,74.7349165 111.404646,74.7141533 C111.687847,74.6082612 111.933702,74.554277 112.230389,74.4961402 C112.585167,74.4296981 112.647409,74.1608151 112.933722,74.0175493 C113.047832,73.9594125 114.451386,73.8140704 114.327939,73.5576454 C114.220054,73.3354796 113.417133,73.7289414 113.425432,73.4392954 C113.793697,73.6220112 113.587261,73.4071125 113.819631,73.3105638 Z M103.953257,73.3199072 C104.178365,73.3458611 104.384801,73.2534651 104.593311,73.1880611 C104.384801,73.2534651 104.615096,73.1818322 104.593311,73.1880611 C104.704309,73.1538019 104.134796,73.1600309 103.953257,73.3199072 Z M105.036266,72.7426913 C104.912819,72.780065 105.011369,72.7447677 105.036266,72.7426913 C104.88896,72.7447677 104.651404,72.7395769 104.560116,72.8963387 C105.086059,73.0998177 104.71572,72.8298966 105.036266,72.7426913 Z M114.905751,74.4213928 C114.947246,74.4847204 115.004301,74.4982165 115.070692,74.4598046 C115.018824,74.4494231 115.251194,74.4483849 115.070692,74.4598046 C115.124635,74.4608428 115.177541,74.4608428 115.227334,74.4639573 C115.256381,74.5241704 115.250157,74.5646586 115.211774,74.5843836 C115.413023,74.521056 115.549955,74.8543047 115.783362,74.8314652 C115.989797,74.8117402 117.061395,75.0079521 117.055171,74.5117125 C117.046872,74.0009388 114.902639,74.3705231 114.905751,74.4213928 Z M105.575695,72.7551492 C105.550799,72.6264177 104.952239,72.9596664 105.149339,73.0063835 C105.450174,73.0800927 106.043547,73.0759401 106.299776,72.8994532 C106.114088,72.7966756 105.625489,73.0468716 105.575695,72.7551492 Z M107.908728,102.244027 C107.95126,102.200424 107.979269,102.148516 107.989643,102.087265 C107.818477,102.082074 107.665985,102.39975 107.865159,102.347842 C107.863084,102.347842 108.346496,102.273095 108.195041,102.222225 C108.2189,102.229492 107.908728,102.232607 107.908728,102.244027 Z M154.250912,64.237063 L154.250912,138.335589 C154.250912,146.259849 147.771533,152.743145 139.852293,152.743145 L14.3965443,152.743145 C6.47834119,152.743145 0,146.259849 0,138.335589 L0,64.237063 C0,56.3107269 6.47834119,49.8295066 14.3965443,49.8295066 L139.852293,49.8295066 C147.771533,49.8295066 154.250912,56.3107269 154.250912,64.237063 Z M140.634465,101.996945 C140.887582,102.321888 140.903143,101.395852 140.895881,101.51524 C140.921815,101.122816 140.986132,100.915184 140.875134,100.550791 C140.900031,100.630729 140.827415,100.625538 140.832602,100.591279 C140.590896,100.819674 140.472637,101.787237 140.634465,101.996945 Z M140.672848,105.800756 C140.547327,106.319835 140.339854,107.978811 140.398984,107.991269 C140.440478,108.001651 140.618905,106.588718 140.688408,105.950251 C140.696707,105.910801 140.710193,105.828786 140.716417,105.663719 C140.716417,105.700055 140.705006,105.805947 140.688408,105.950251 C140.669736,106.024998 140.655213,105.92222 140.672848,105.800756 Z M137.069044,86.8709833 C137.129211,87.1004162 137.370917,87.3630702 137.492288,87.5613583 C137.857441,88.1458413 138.228817,88.7251334 138.566998,89.3241506 C139.171781,90.3944914 139.741295,91.5696863 140.154166,92.7272324 C140.157278,92.7334614 140.159352,92.7428048 140.162465,92.7479956 L140.162465,92.743843 C140.166614,92.7563008 140.166614,92.7542245 140.166614,92.7614916 C140.263089,93.0127259 140.409357,93.2411206 140.528654,93.4809351 C139.808723,91.068256 138.68422,88.9472992 137.272367,86.8678688 C137.244358,86.8221898 137.009914,86.6643898 137.069044,86.8709833 Z M140.291098,105.10519 C140.291098,105.110381 140.291098,105.113495 140.289023,105.120762 C140.285911,105.174747 140.303546,105.213158 140.354377,105.227693 C140.44359,105.211082 140.295247,102.822281 140.289023,102.563779 C140.117858,103.423374 140.394834,104.267397 140.291098,105.10519 Z M140.181137,105.221464 C139.978851,105.294135 139.869928,105.410408 139.901049,105.689673 C139.956029,105.637765 140.181137,105.343966 140.178025,105.23496 C140.178025,105.247418 140.186324,105.265066 140.181137,105.221464 Z M129.937163,77.6957431 C130.233849,77.9199852 130.530535,78.1452655 130.818923,78.3830036 C130.602113,78.2044405 130.386342,78.0289918 130.164346,77.8576957 C130.089655,77.8026733 130.011853,77.7528418 129.937163,77.6957431 Z M98.5122806,74.7442599 C98.6803336,74.6778178 98.8504614,74.6072231 99.0205892,74.5501244 C98.9189275,74.7006573 98.7104172,74.8221218 98.5527378,74.8968692 C98.8680966,74.7837099 99.2322116,74.718306 99.4894779,74.4795296 C99.3764052,74.4411178 99.2757809,74.5968415 99.1844928,74.4566902 C99.3743305,74.3352257 99.5735045,74.2334862 99.7840895,74.1431665 C99.3556579,74.3362638 98.9313759,74.5355902 98.5122806,74.7442599 Z M99.1575213,81.8016579 C99.6845025,81.4767144 98.4095815,81.6147894 98.1761745,81.8016579 C98.2010713,81.7808947 98.3110319,81.6916131 98.1751371,81.8037342 C98.1751371,81.8037342 98.1751371,81.8037342 98.1761745,81.8016579 L98.1751371,81.8037342 C97.9790753,81.9677631 98.9853188,81.90755 99.1575213,81.8016579 Z M96.7197148,82.4505066 C96.5101672,82.6685198 98.2664252,82.4422013 98.2124823,82.085075 C98.1875855,81.9303895 96.8110029,82.3529197 96.7197148,82.4505066 Z M97.0807176,75.9765534 C97.1761551,75.9993929 97.8774135,75.7626929 97.7923497,75.5976258 C97.7581166,75.5280692 97.1367353,75.908035 97.0807176,75.9765534 Z M96.3794592,76.6721193 C96.4002065,76.6710811 96.4489626,76.6492798 96.5112045,76.6150206 C96.73735,76.5485785 97.1896409,76.453068 97.1792672,76.3887022 C97.1595573,76.2703522 96.7342379,76.5039377 96.5112045,76.6150206 C96.4261406,76.6420127 96.3711603,76.6586232 96.3794592,76.6721193 Z M95.7228075,79.233255 C95.8991595,79.2467511 96.4977188,78.286455 96.538176,78.1649905 C96.5526991,78.0985484 96.1750984,78.2646536 96.0817356,78.1836773 C95.8462539,77.9770839 95.7466669,78.62178 95.860777,78.536651 C96.2860964,78.2168984 95.8649264,79.1585077 95.7228075,79.233255 Z M95.6699019,80.5973946 C95.8566275,80.5008459 96.0443905,80.6669512 96.2529008,80.547563 C96.4541495,80.4312893 96.6315388,80.4042972 96.725939,80.6669512 C96.8607963,81.0313446 97.9842621,80.3067104 97.6211845,80.1281472 C97.5983625,80.1167275 97.4074874,80.166559 97.4583183,80.0502854 C97.5848768,79.7471432 97.3410961,79.9049432 97.2031266,79.8104709 C96.6419124,79.9630801 96.1564259,80.3482367 95.6699019,80.5973946 Z M95.516372,82.5553606 C95.516372,82.5574369 95.516372,82.5553606 95.516372,82.5574369 L95.516372,82.5553606 L95.516372,82.5574369 C95.5329698,82.5698948 95.5443808,82.5802763 95.5174093,82.5574369 C95.7207328,82.7276948 96.1460522,82.06535 96.1771732,81.9314276 C96.2736481,81.5306986 96.6356883,81.3510973 96.9437855,81.1476183 C97.8660025,80.547563 96.9977285,81.763246 96.9811306,81.7393684 C97.027812,81.8193065 97.2114255,81.6407434 97.261219,81.6282855 C97.4365336,81.5784539 97.2311355,81.9355802 97.2601817,81.9750302 C97.3784412,82.118296 97.9438049,81.2877697 97.9718137,81.1839539 C98.1699503,81.4756763 98.4718234,81.408196 98.3535638,81.0147341 C98.2301175,80.6036236 97.3442082,80.8309802 97.0620451,80.8776973 C96.5485496,80.9607499 96.3026943,81.1112828 96.0537268,81.5576907 C95.9697003,81.7092618 95.3037123,82.3622632 95.516372,82.5553606 Z M57.540533,70.2625319 L63.2688597,70.2625319 C64.2564307,70.2625319 65.0686871,70.2023188 65.7035542,70.0808543 C66.3384212,69.960428 66.8705892,69.7673306 67.2979834,69.500524 C67.9847186,69.0790318 68.5158493,68.501816 68.8913752,67.7678383 C69.2710506,67.0338606 69.4598509,66.208525 69.4598509,65.2928697 C69.4598509,63.743938 68.9764391,62.54798 68.008578,61.7081102 C67.0376049,60.8640878 65.6537607,60.4436338 63.8528959,60.4436338 L57.5415704,60.4436338 L57.5415704,70.2625319 L57.540533,70.2625319 Z M69.4494773,113.465476 L69.4494773,106.718487 L59.4897409,106.718487 C58.9233399,106.718487 58.4617127,107.178391 58.4617127,107.745226 L58.4617127,112.434585 C58.4617127,113.00142 58.9233399,113.465476 59.4897409,113.465476 L69.4494773,113.465476 Z M59.4897409,115.522067 L32.3595476,115.522067 L12.6309499,115.522067 C13.1340717,118.99782 16.1351671,121.695993 19.7451955,121.695993 L62.2512052,121.695993 C65.8601962,121.695993 68.8612916,118.996782 69.3664881,115.522067 L59.4897409,115.522067 Z M69.4494773,104.658782 L69.4494773,97.9138697 L59.4897409,97.9138697 C58.9233399,97.9138697 58.4617127,98.3737737 58.4617127,98.9406079 L58.4617127,103.631006 C58.4617127,104.19784 58.9233399,104.658782 59.4897409,104.658782 L69.4494773,104.658782 Z M69.4494773,95.8541643 L69.4494773,89.1092519 L35.2548319,89.1092519 C35.3699794,89.4331572 35.4436322,89.7747111 35.4436322,90.1370283 L35.4436322,94.8253497 C35.4436322,95.6195405 35.135535,96.3358696 34.6438242,96.8829788 C35.135535,97.4311262 35.4436322,98.1484934 35.4436322,98.9395698 L35.4436322,103.629968 C35.4436322,104.424158 35.135535,105.140487 34.6438242,105.686558 C35.135535,106.233668 35.4436322,106.954149 35.4436322,107.744188 L35.4436322,112.433547 C35.4436322,112.797941 35.3699794,113.139495 35.2548319,113.464438 L56.595494,113.464438 C56.4782718,113.139495 56.4035816,112.796902 56.4035816,112.433547 L56.4035816,107.744188 C56.4035816,106.953111 56.7168657,106.233668 57.2085764,105.686558 C56.7168657,105.140487 56.4035816,104.42312 56.4035816,103.629968 L56.4035816,98.9395698 C56.4035816,97.239067 57.7884632,95.8531261 59.4897409,95.8531261 L69.4494773,95.8531261 L69.4494773,95.8541643 Z M69.3664881,87.0516228 C68.8612916,83.5727554 65.8601962,80.8745828 62.2512052,80.8745828 L19.7451955,80.8745828 C16.1351671,80.8745828 13.1330343,83.5737935 12.6309499,87.0516228 L32.3595476,87.0516228 L69.3664881,87.0516228 Z M42.2954246,70.2625319 L44.5444308,70.2625319 L44.5444308,66.556308 L46.7073358,66.556308 L50.6617692,70.2614938 L53.9377662,70.2614938 L49.4086329,66.556308 L50.689778,66.556308 C51.4698761,66.556308 52.0342024,66.4026606 52.3806821,66.0995184 C52.7323487,65.7963763 52.9076633,65.3136329 52.9076633,64.6512881 L52.9076633,62.3465774 C52.9076633,61.6780036 52.7323487,61.1921457 52.3806821,60.892118 C52.0342024,60.5920904 51.4698761,60.4415575 50.689778,60.4415575 L42.2954246,60.4415575 L42.2954246,70.2625319 Z M25.766059,70.2625319 L28.0399619,70.2625319 L29.1821002,68.1166594 L35.4011003,68.1166594 L36.578509,70.2625319 L39.1418366,70.2625319 L33.516209,60.4436338 L31.3169963,60.4436338 L25.766059,70.2625319 Z M12.545886,67.9401725 C12.545886,68.837141 12.7139391,69.4496542 13.0469331,69.7745977 C13.3799271,70.0995411 14.0251678,70.2614938 14.9785057,70.2614938 L20.836503,70.2614938 C21.781542,70.2614938 22.424708,70.0995411 22.7608141,69.7745977 C23.0989949,69.4496542 23.267048,68.837141 23.267048,67.9401725 L23.267048,66.7795119 L20.9827714,66.3040356 L20.9827714,68.4146107 L14.8291253,68.4146107 L14.8291253,62.1981208 L20.9827714,62.1981208 L20.9827714,64.0574617 L23.267048,63.6941064 L23.267048,62.764955 C23.267048,61.8752536 23.0979575,61.2648167 22.7608141,60.9357207 C22.4236706,60.6076627 21.7805046,60.4436338 20.836503,60.4436338 L14.9785057,60.4436338 C14.0251678,60.4436338 13.3799271,60.6076627 13.0469331,60.9357207 C12.7139391,61.2637786 12.545886,61.8742155 12.545886,62.764955 L12.545886,67.9401725 L12.545886,67.9401725 Z M12.545886,95.8541643 L32.3595476,95.8541643 C32.9259486,95.8541643 33.3875758,95.392184 33.3875758,94.8253497 L33.3875758,90.1370283 C33.3875758,89.570194 32.9259486,89.1092519 32.3595476,89.1092519 L12.545886,89.1092519 L12.545886,95.8541643 L12.545886,95.8541643 Z M12.545886,104.658782 L32.3595476,104.658782 C32.9259486,104.658782 33.3875758,104.19784 33.3875758,103.631006 L33.3875758,98.9406079 C33.3875758,98.3737737 32.9259486,97.9138697 32.3595476,97.9138697 L12.545886,97.9138697 L12.545886,104.658782 L12.545886,104.658782 Z M12.545886,113.465476 L32.3595476,113.465476 C32.9259486,113.465476 33.3875758,113.00142 33.3875758,112.434585 L33.3875758,107.745226 C33.3875758,107.178391 32.9259486,106.718487 32.3595476,106.718487 L12.545886,106.718487 L12.545886,113.465476 L12.545886,113.465476 Z M19.8976881,140.146136 C19.8976881,139.55231 19.7960264,139.145352 19.5875161,138.930453 C19.382118,138.715555 18.9879195,138.606548 18.4080327,138.606548 L14.00857,138.606548 C13.43387,138.606548 13.0417463,138.714516 12.8353107,138.930453 C12.6268005,139.145352 12.5241014,139.55231 12.5241014,140.146136 L12.5241014,143.578286 C12.5241014,144.175227 12.6278378,144.579071 12.8353107,144.796046 C13.0417463,145.011983 13.43387,145.117875 14.00857,145.117875 L18.4080327,145.117875 C18.9879195,145.117875 19.382118,145.011983 19.5875161,144.796046 C19.7960264,144.579071 19.8976881,144.175227 19.8976881,143.578286 L19.8976881,140.146136 Z M29.6416527,140.146136 C29.6416527,139.55231 29.539991,139.145352 29.3314807,138.930453 C29.1250452,138.715555 28.7308467,138.606548 28.1519973,138.606548 L23.7525345,138.606548 C23.1778346,138.606548 22.7877856,138.714516 22.5782379,138.930453 C22.3718024,139.145352 22.268066,139.55231 22.268066,140.146136 L22.268066,143.578286 C22.268066,144.175227 22.3718024,144.579071 22.5782379,144.796046 C22.7877856,145.011983 23.1778346,145.117875 23.7525345,145.117875 L28.1519973,145.117875 C28.731884,145.117875 29.1250452,145.011983 29.3314807,144.796046 C29.539991,144.579071 29.6416527,144.175227 29.6416527,143.578286 L29.6416527,140.146136 Z M39.3856173,140.146136 C39.3856173,139.55231 39.2818808,139.145352 39.0744079,138.930453 C38.8700471,138.715555 38.4748112,138.606548 37.8959619,138.606548 L33.4975365,138.606548 C32.9228365,138.606548 32.5276007,138.714516 32.3232399,138.930453 C32.1168043,139.145352 32.0130679,139.55231 32.0130679,140.146136 L32.0130679,143.578286 C32.0130679,144.175227 32.1168043,144.579071 32.3232399,144.796046 C32.5276007,145.011983 32.9228365,145.117875 33.4975365,145.117875 L37.8959619,145.117875 C38.4748112,145.117875 38.8690097,145.011983 39.0744079,144.796046 C39.2829182,144.579071 39.3856173,144.175227 39.3856173,143.578286 L39.3856173,140.146136 Z M54.0124564,140.146136 C54.0124564,139.55231 53.9056079,139.145352 53.7012471,138.930453 C53.4927368,138.715555 53.1006131,138.606548 52.5228011,138.606548 L48.1202262,138.606548 C47.5455263,138.606548 47.1554772,138.714516 46.9490417,138.930453 C46.7405314,139.145352 46.6357576,139.55231 46.6357576,140.146136 L46.6357576,143.578286 C46.6357576,144.175227 46.7405314,144.579071 46.9490417,144.796046 C47.1554772,145.011983 47.5455263,145.117875 48.1202262,145.117875 L52.5228011,145.117875 C53.1006131,145.117875 53.4927368,145.011983 53.7012471,144.796046 C53.9056079,144.579071 54.0124564,144.175227 54.0124564,143.578286 L54.0124564,140.146136 Z M63.7553837,140.146136 C63.7553837,139.55231 63.6516472,139.145352 63.4452117,138.930453 C63.2367014,138.715555 62.845615,138.606548 62.267803,138.606548 L57.8631534,138.606548 C57.2905282,138.606548 56.8984044,138.714516 56.6919689,138.930453 C56.4855334,139.145352 56.3797222,139.55231 56.3797222,140.146136 L56.3797222,143.578286 C56.3797222,144.175227 56.4855334,144.579071 56.6919689,144.796046 C56.8984044,145.011983 57.2905282,145.117875 57.8631534,145.117875 L62.267803,145.117875 C62.845615,145.117875 63.2377388,145.011983 63.4452117,144.796046 C63.6516472,144.579071 63.7553837,144.175227 63.7553837,143.578286 L63.7553837,140.146136 Z M73.5003856,140.146136 C73.5003856,139.55231 73.3966491,139.145352 73.1871015,138.930453 C72.9817034,138.715555 72.5864675,138.606548 72.0117676,138.606548 L67.6081553,138.606548 C67.0344928,138.606548 66.6434064,138.714516 66.4348961,138.930453 C66.2263859,139.14639 66.1247241,139.55231 66.1247241,140.146136 L66.1247241,143.578286 C66.1247241,144.175227 66.2263859,144.579071 66.4348961,144.796046 C66.6434064,145.011983 67.0344928,145.117875 67.6081553,145.117875 L72.0117676,145.117875 C72.5864675,145.117875 72.9817034,145.011983 73.1871015,144.796046 C73.3966491,144.579071 73.5003856,144.175227 73.5003856,143.578286 L73.5003856,140.146136 Z M88.1230753,140.146136 C88.1230753,139.55231 88.0214136,139.145352 87.8129033,138.930453 C87.6064678,138.715555 87.2112319,138.606548 86.6334199,138.606548 L82.2339572,138.606548 C81.6592572,138.606548 81.2692082,138.714516 81.0606979,138.930453 C80.8542624,139.145352 80.7515633,139.55231 80.7515633,140.146136 L80.7515633,143.578286 C80.7515633,144.175227 80.8552998,144.579071 81.0606979,144.796046 C81.2692082,145.011983 81.6592572,145.117875 82.2339572,145.117875 L86.6334199,145.117875 C87.2122693,145.117875 87.6064678,145.011983 87.8129033,144.796046 C88.0214136,144.579071 88.1230753,144.175227 88.1230753,143.578286 L88.1230753,140.146136 Z M97.8680773,140.146136 C97.8680773,139.55231 97.7664155,139.145352 97.5579053,138.930453 C97.3514697,138.715555 96.9583086,138.606548 96.3784219,138.606548 L91.9789591,138.606548 C91.4042592,138.606548 91.011098,138.714516 90.8056999,138.930453 C90.5971896,139.145352 90.4944905,139.55231 90.4944905,140.146136 L90.4944905,143.578286 C90.4944905,144.175227 90.598227,144.579071 90.8056999,144.796046 C91.011098,145.011983 91.4042592,145.117875 91.9789591,145.117875 L96.3784219,145.117875 C96.9583086,145.117875 97.3514697,145.011983 97.5579053,144.796046 C97.7664155,144.579071 97.8680773,144.175227 97.8680773,143.578286 L97.8680773,140.146136 Z M107.612042,140.146136 C107.612042,139.55231 107.508305,139.145352 107.30187,138.930453 C107.097509,138.715555 106.700198,138.606548 106.121349,138.606548 L101.718774,138.606548 C101.144074,138.606548 100.7561,138.714516 100.549664,138.930453 C100.341154,139.145352 100.238455,139.55231 100.238455,140.146136 L100.238455,143.578286 C100.238455,144.175227 100.342192,144.579071 100.549664,144.796046 C100.7561,145.011983 101.145112,145.117875 101.718774,145.117875 L106.121349,145.117875 C106.700198,145.117875 107.096472,145.011983 107.30187,144.796046 C107.508305,144.579071 107.612042,144.175227 107.612042,143.578286 L107.612042,140.146136 Z M122.236806,140.146136 C122.236806,139.55231 122.13307,139.145352 121.926634,138.930453 C121.720199,138.715555 121.327038,138.606548 120.745076,138.606548 L116.346651,138.606548 C115.770913,138.606548 115.381902,138.714516 115.176504,138.930453 C114.966956,139.145352 114.861145,139.55231 114.861145,140.146136 L114.861145,143.578286 C114.861145,144.175227 114.966956,144.579071 115.176504,144.796046 C115.381902,145.011983 115.770913,145.117875 116.346651,145.117875 L120.745076,145.117875 C121.327038,145.117875 121.719161,145.011983 121.926634,144.796046 C122.13307,144.579071 122.236806,144.175227 122.236806,143.578286 L122.236806,140.146136 Z M131.982846,140.146136 C131.982846,139.55231 131.877034,139.145352 131.670599,138.930453 C131.463126,138.715555 131.071002,138.606548 130.491115,138.606548 L126.090615,138.606548 C125.513841,138.606548 125.125866,138.714516 124.919431,138.930453 C124.710921,139.145352 124.605109,139.55231 124.605109,140.146136 L124.605109,143.578286 C124.605109,144.175227 124.710921,144.579071 124.919431,144.796046 C125.125866,145.011983 125.513841,145.117875 126.090615,145.117875 L130.491115,145.117875 C131.071002,145.117875 131.463126,145.011983 131.670599,144.796046 C131.877034,144.579071 131.982846,144.175227 131.982846,143.578286 L131.982846,140.146136 Z M141.724735,140.146136 C141.724735,139.55231 141.620999,139.145352 141.414563,138.930453 C141.208128,138.715555 140.812892,138.606548 140.236117,138.606548 L135.833543,138.606548 C135.258843,138.606548 134.869831,138.714516 134.662358,138.930453 C134.453848,139.145352 134.350111,139.55231 134.350111,140.146136 L134.350111,143.578286 C134.350111,144.175227 134.453848,144.579071 134.662358,144.796046 C134.869831,145.011983 135.258843,145.117875 135.833543,145.117875 L140.236117,145.117875 C140.812892,145.117875 141.208128,145.011983 141.414563,144.796046 C141.620999,144.579071 141.724735,144.175227 141.724735,143.578286 L141.724735,140.146136 Z M141.739259,100.722087 C141.727848,100.298519 141.68739,99.8832554 141.661456,99.4648777 L141.661456,99.3579474 C141.644858,99.1461632 141.638634,99.0475382 141.630335,99.0091263 L141.630335,98.9956303 L141.630335,98.9904395 C141.609588,98.9136158 141.635522,99.6808146 141.653157,99.769058 C141.630335,100.938024 141.500665,102.101799 141.397966,103.26246 C141.278669,104.661897 141.233025,106.073791 140.979908,107.459732 C140.743389,108.756392 140.088812,109.737451 139.6054,110.928218 C139.41245,111.414076 139.321162,111.940422 139.145847,112.430433 C138.933188,113.028412 138.47156,113.420835 138.235041,113.986631 C137.787937,115.040362 137.081492,116.041146 136.307618,116.875825 C135.974624,117.238142 135.587687,117.709466 135.044108,117.701161 C134.780618,117.692855 134.00052,118.375963 134.144713,117.701161 C134.251562,117.205959 134.563808,116.829108 134.664433,116.322487 C134.771281,115.758767 134.730824,115.191933 134.840785,114.650014 C135.09079,113.460285 135.487063,112.474035 135.406148,111.233437 C135.327309,110.009448 135.576276,109.105213 136.014044,107.949743 C136.218405,107.410939 136.603267,107.131674 136.471522,106.491131 C136.352225,105.887961 136.563847,105.42079 136.404093,104.833193 C136.253675,104.292312 136.300357,103.75247 136.031679,103.242735 C135.793085,102.795288 135.458017,102.365491 135.324197,101.867175 C135.22046,101.466446 135.447643,100.956711 135.417559,100.51757 C135.37814,99.8977896 135.674826,99.532358 135.199713,98.9779816 C134.821075,98.5357263 134.528538,99.151354 134.117742,98.9499513 C133.731842,98.7620447 133.905082,98.0426013 133.370839,97.9211368 C132.884315,97.811092 132.333475,98.2014394 131.962098,98.4464447 C131.722467,98.6042447 131.466238,98.7433579 131.220383,98.8887 C131.049218,98.9852487 130.448584,98.7153276 130.208952,98.7350526 C129.770147,98.77035 129.087561,99.3755961 128.705811,99.1918422 C128.189204,98.9437224 127.819902,98.553375 127.369686,98.2149355 C126.982749,97.9325565 126.589588,97.8515802 126.359293,97.4145157 C126.243108,97.199617 126.208875,96.9224288 126.069868,96.7241406 C125.901815,96.4936696 125.563634,96.2870761 125.352012,96.0908643 C125.197445,95.9434458 124.974411,95.8406682 125.033541,95.5707471 C124.757602,95.5198774 124.638305,95.6496471 124.454692,95.3309326 C124.306348,95.070355 124.46714,94.7838234 124.338507,94.5481615 C124.188089,94.2834312 123.920449,94.1858444 124.147632,93.8577865 C124.338507,93.5826746 124.314647,92.9421311 124.309461,92.619264 C124.306348,92.2621376 124.002401,92.0576205 123.974392,91.7440968 C123.938084,91.3672455 123.954682,91.3402534 123.676668,91.0589126 C123.32189,90.6965954 123.77833,89.7778256 123.969205,89.4009743 C124.097838,89.1435111 124.053231,88.8476361 124.089539,88.5704479 C124.117548,88.3493202 124.350955,88.3171373 124.395562,88.0866663 C124.527307,87.4513136 125.174622,87.4772675 125.390394,86.8253043 C125.503467,86.4764832 125.281471,86.4245753 125.193295,86.1100135 C125.118605,85.8452832 125.216117,85.3666924 125.380021,85.1569844 C125.548074,84.9348186 125.793929,84.9244371 125.82505,84.5984555 C125.868619,84.1437423 125.65181,83.9039278 126.158044,84.1904594 C126.648717,84.4645331 127.204745,84.2184896 127.559523,83.9309199 C127.814715,83.7201738 127.783594,83.6734567 128.103102,83.5696409 C128.255595,83.517733 129.078225,83.4616725 129.116608,83.4263751 C129.355201,83.1990185 129.582384,83.4035356 129.838613,83.3132159 C130.192354,83.1844843 130.002517,83.1896751 130.360408,83.2997198 C130.693402,83.4035356 130.336548,83.2457356 130.577217,83.6049383 C130.688215,83.7035633 130.797138,83.800112 130.907099,83.8976988 C131.062703,84.1011778 130.851081,84.3264581 130.977639,84.4936015 C131.345904,84.9732305 132.04405,84.8299647 132.511901,85.0365581 C132.779542,85.1528318 132.854232,85.4559739 133.116685,85.5639424 C133.426857,85.6905976 133.695534,85.8068713 134.00052,85.9522135 C134.388494,86.1370056 133.397811,84.4396173 134.11048,84.7967436 C134.428951,84.9535055 134.664433,85.1403739 135.015062,85.2701437 C135.201788,85.3397003 135.392663,85.4144476 135.579388,85.4902332 C135.847028,85.6002779 135.617771,85.3137463 135.776487,85.2441897 C135.793085,85.2410752 136.306581,85.5462937 136.188321,85.2369226 C136.02753,84.8133542 135.724619,84.3835568 135.479801,84.0015146 C135.267142,83.6537317 134.995352,83.3433225 134.78373,82.9924251 C134.631237,82.7463816 134.632274,83.2312014 134.64991,83.2197817 C134.546173,83.2862238 134.259861,82.8938001 134.196581,82.9976159 C134.16546,83.0432948 134.32314,83.1595685 134.22459,83.2197817 C134.01608,83.3433225 133.161292,82.4525829 133.054443,82.2927066 C132.927885,82.0954566 132.652983,81.9854118 132.557546,81.7850473 C132.419576,81.5099355 132.836597,81.7019947 132.746346,81.5078592 C132.619787,81.2410526 132.761906,81.3282578 132.728711,81.0209631 C132.69759,80.7043249 133.464202,81.3573262 133.55549,81.2348236 C133.723543,81.0043525 132.602152,80.2402683 132.48493,80.1509867 C132.312727,80.0222551 131.785746,79.4398485 131.833465,79.9111722 C131.83139,79.8447301 131.207934,79.6298314 131.351091,79.4616498 C131.415407,79.3889787 131.619768,79.7502577 131.74114,79.6069919 C131.800269,79.5374353 131.286774,78.9861734 131.203785,79.0297761 C131.129095,79.0733787 131.262915,79.2768577 131.269139,79.3152695 C131.310633,79.5405498 130.890501,79.2259879 130.849006,79.2695906 C130.766017,79.3412235 131.398809,80.1104985 131.466238,80.2028946 C131.644665,80.4530907 131.828278,80.7198973 132.050274,80.9399867 C132.13845,81.027192 132.511901,81.1964118 132.553396,81.2939986 C132.506715,81.1922591 132.352147,81.5639197 132.402978,81.5172026 C132.324139,81.5888355 132.092806,81.2805026 132.02849,81.4601039 C131.979733,81.585721 131.956911,81.7902381 132.050274,81.8753671 C132.207954,82.0238237 132.63846,82.2760961 132.742196,82.4505066 C132.873942,82.6716342 132.908175,82.9104106 133.061705,83.1460724 C132.780579,83.1014317 132.495304,82.8450066 132.228701,82.5709329 C132.223514,82.5553606 132.213141,82.5408263 132.203804,82.5273303 C132.202767,82.5345974 132.203804,82.5397882 132.205879,82.544979 C131.994257,82.3238513 131.795083,82.0975329 131.614581,81.966725 C131.236981,81.684346 131.017059,81.1953736 130.593815,80.9929328 C130.084469,80.7479275 129.585496,80.5330288 129.121794,80.2091235 C129.033618,80.1437196 128.425723,79.7928222 128.366593,79.8478445 C128.153933,80.0689722 129.033618,80.573517 129.167438,80.6586459 C129.378023,80.7884157 129.592758,80.9171473 129.781558,81.0801381 C129.853136,81.1424275 130.161234,81.165267 130.177831,81.191221 C130.435098,81.5815684 130.9932,81.5213552 131.252541,81.9220842 C131.247354,81.9179316 131.244242,81.9179316 131.242167,81.9220842 C130.820997,81.8753671 130.722448,81.6822697 131.148805,82.138021 C131.239055,82.2387224 131.440304,82.6550237 131.264989,82.7650685 C131.14258,82.8418922 131.452752,83.1554159 131.456902,83.241583 C131.349016,83.2384685 130.362482,82.8149 130.647758,82.7183514 C130.843819,82.6519092 130.988013,82.8657698 131.148805,82.6114211 C131.29611,82.3726448 130.788839,82.0207092 130.649832,81.9241605 C130.128038,81.5701486 129.52118,81.3531736 128.978638,81.0375736 C128.800211,80.9316815 128.082355,80.1966656 127.843761,80.3669235 C127.828201,80.3773051 127.637326,80.7998354 127.630064,80.8278657 C127.595831,80.9700933 127.089597,80.7801104 127.011795,80.7603854 C126.54913,80.6451499 127.135241,81.4434934 127.08856,81.526546 C126.920507,81.8099631 126.36033,82.2439132 126.93503,82.604154 C127.208894,82.7775264 126.803285,83.1595685 126.822995,83.3111396 C126.854116,83.5686027 126.669465,83.5488777 126.491038,83.5665264 C126.24622,83.5893659 125.888329,83.8748593 125.69123,83.8551343 C125.531476,83.8343712 125.405955,83.5862514 125.279396,83.5083896 C125.115493,83.4076883 124.778349,83.5042369 124.58125,83.5166948 C124.567764,83.517733 123.942233,82.7702593 123.937047,82.7463816 C123.834348,82.2044632 123.783517,81.7476736 123.39243,81.3085328 C122.710882,80.5506775 125.373796,81.1465802 125.402843,80.8538196 C125.460935,80.3035959 124.790798,79.8976761 124.439131,79.6350222 C124.318797,79.5478169 123.263797,79.2093774 123.292843,79.0899892 C123.346786,78.81903 123.905926,79.1626603 124.024185,78.9872116 C124.111324,78.8553655 123.746172,78.7764655 123.801152,78.6819931 C123.867543,78.5709102 124.385188,78.9353037 124.400749,78.4255681 C124.40801,78.0456023 124.194313,78.444255 124.465065,78.0456023 C124.553241,77.9116799 124.322946,77.5618207 124.40801,77.5151036 C124.356142,77.2015799 124.773162,77.3521128 124.817769,77.2161141 C124.882086,77.0095206 123.494092,76.4011601 123.780405,76.1592693 C123.933935,76.0274232 125.086447,77.4050588 125.253462,77.0977641 C125.449524,76.7437522 125.727538,77.2794417 125.895591,77.0406654 C126.153895,76.6731575 126.111363,77.0105588 126.417385,76.8890943 C126.181903,76.5278153 125.892479,76.4042745 125.579195,76.0876364 C125.520065,76.0274232 125.01798,75.487581 125.034578,75.4522837 C125.102007,75.2955218 125.202631,75.4834284 125.261761,75.2975981 C125.339563,75.0577836 124.830217,74.8158928 124.628969,74.8709152 C124.732705,74.9788836 124.916319,75.0847757 125.058438,75.1335692 C124.972336,75.250881 124.423571,75.3277047 124.231658,75.2020876 C124.027297,75.0723179 122.195312,73.8535204 122.119584,73.9926336 C122.027259,74.159777 123.689117,75.2238889 123.902814,75.2737205 C124.187052,75.3401626 125.365498,76.3710535 125.112381,76.6264403 C124.992046,76.7499811 123.229564,75.4553981 123.195331,75.7222047 C123.125828,76.2807337 122.556315,75.750235 122.236806,75.5737482 C121.783478,75.3235521 121.315627,75.1636758 121.378906,74.5791928 C121.416251,74.2272573 120.602957,73.7320559 120.364363,73.5483019 C119.897549,73.1963664 120.153778,73.0250703 120.675573,73.1548401 C121.282431,73.305373 121.917298,73.3884256 122.504446,73.6116296 C122.604033,73.6490033 122.545941,73.7756585 122.644491,73.8119941 C123.020016,73.9542217 123.384131,74.1358994 123.777293,74.232448 C123.677706,74.1462809 123.226452,73.9656414 123.214004,73.8483296 C123.37272,74.0767244 124.309461,74.3082336 124.578138,74.4328125 C125.23479,74.7390691 125.877956,75.0692034 126.505561,75.4252916 C127.14354,75.7834561 127.765959,76.1634219 128.373855,76.5683035 C127.776333,76.1727653 127.164288,75.795914 126.538757,75.4439784 C126.527346,75.4377495 126.515935,75.4304824 126.505561,75.4252916 C121.963979,72.8620795 116.695205,71.4512228 111.100699,71.5955268 C107.079874,71.7024571 103.264447,72.6004637 99.7965378,74.1348612 C100.001936,74.0466178 100.21667,73.9666796 100.423106,73.8877796 C100.780997,74.1358994 100.233268,74.1016401 100.280987,74.2729362 C100.308996,74.382981 100.884733,74.3227678 100.904443,74.1846928 C100.915854,74.0788007 100.744689,74.1099454 100.847388,74.0082059 C101.028927,73.8161467 101.204241,73.8296428 101.42935,73.7299796 C101.945957,73.496394 102.320446,73.0842453 102.94079,73.0697111 C102.905519,73.1320006 102.640991,73.206748 102.674187,73.2866861 C102.731242,73.4195704 102.904482,73.2846098 102.992658,73.2929151 C102.839128,73.5825612 101.814212,74.1234415 101.497816,74.0466178 C101.339099,74.0040533 101.049674,74.2833178 101.305903,74.3030428 C101.437648,74.3134244 102.020647,74.0725717 102.061104,74.0964494 C102.146168,74.1462809 101.945957,74.1971507 102.028946,74.2604783 C102.286213,74.4535757 103.128553,73.4600585 103.551797,73.5181954 C103.460509,73.7112927 103.051788,74.0393507 102.867137,74.140052 C102.922117,74.1296704 103.180421,73.9729086 103.212579,74.0601138 C103.272746,74.2199902 102.764438,74.2137612 102.8578,74.3871336 C102.896183,74.4670718 103.409678,74.1836546 103.462584,74.1618533 C103.819437,74.0196257 103.937697,73.9801757 103.808026,73.7227125 C103.756158,73.6157822 104.871325,73.0603677 104.926305,73.2192059 C104.935641,73.2358164 104.560116,73.4673256 104.535219,73.5399967 C104.65659,73.4662875 105.469884,72.9627808 105.555985,73.2129769 C105.58192,73.2898006 105.42424,73.3593572 105.38482,73.3853111 C105.459511,73.3894638 106.020725,73.2181677 106.075705,73.3147164 C106.051846,73.4787454 106.124461,73.5566072 106.304963,73.5503783 C106.347495,73.5804848 106.659741,73.6905296 106.643143,73.8005743 C106.622396,73.9241151 106.234422,73.9884809 106.394176,74.1286322 C106.581939,74.2916231 106.934643,74.3009665 107.143153,74.4504612 C107.046678,74.574002 106.499987,74.9238613 106.340233,74.8439231 C106.203301,74.7743665 106.024874,74.3269204 105.851634,74.6861231 C105.727151,74.9477389 106.166993,74.9581205 105.930474,75.2996744 C105.683581,75.6619916 105.427352,75.1366836 105.271748,75.3059034 C105.205356,75.3775363 105.481295,75.5145731 105.432539,75.6028166 C105.347475,75.7606166 104.523808,75.4647416 104.494762,75.3505442 C104.361979,74.830427 103.631674,75.2436139 103.573582,75.0318297 C103.518602,74.8397705 105.341251,74.7203823 105.323616,74.2262191 C105.271748,73.2472361 104.056994,74.1307086 103.742672,74.3809046 C103.6296,74.4701862 102.915893,74.7484126 102.884772,74.639406 C102.83809,74.475377 102.654477,74.7276494 102.811119,74.9892652 C102.864025,75.0826994 102.847427,75.4906955 102.652402,75.2757968 C102.470863,75.0723179 102.321483,75.2498429 102.129571,75.2924073 C102.056955,75.3059034 101.776867,75.2591863 101.784128,75.2560718 C101.809025,75.1699047 102.189738,75.1263021 102.092225,74.9892652 C101.970854,74.8273126 99.9874129,75.7990284 99.7529685,75.9256837 C99.4531702,76.0897127 99.1637455,76.2807337 98.8898813,76.4831745 C99.0247387,76.3835114 98.7301271,77.025093 98.6948568,77.0770009 C98.8680966,77.1455193 98.9220396,76.9773377 99.136774,77.1091838 C99.4002646,77.2742509 99.4002646,77.6376062 99.7861642,77.6396825 C100.316257,77.6479878 99.9749645,77.8950694 99.7861642,78.1681049 C99.722885,78.2584247 99.5724671,79.0972563 99.8079488,78.9539905 C100.229119,78.6986037 100.621243,78.398576 100.689709,77.8483523 C100.705269,77.7372694 101.729148,77.4081733 101.884753,77.2109233 C101.934546,77.1507101 102.156542,76.8506825 102.052806,76.7593246 C101.764418,76.5070522 102.23227,76.4291903 102.377501,76.3118785 C102.896183,75.8903863 102.781035,75.5249547 103.515489,75.5965876 C103.650347,75.6100837 103.880642,75.4803139 103.980229,75.6412284 C103.998901,75.6692587 104.385838,76.0429956 104.385838,75.9526758 C104.383764,76.2734666 103.931473,76.249589 104.285214,76.5589601 C104.727131,76.9430785 105.103695,76.0284613 105.458473,76.0585679 C105.640012,76.0751785 105.761384,77.0375509 105.799766,77.2192285 C105.86927,77.5929654 106.602686,77.5524773 106.62862,77.7165062 C106.640031,77.8099404 106.471978,77.7538799 106.448119,77.8172075 C106.66804,77.8535431 107.373448,78.3435536 106.849579,78.5574142 C106.34542,78.7640076 105.588144,79.193805 105.053901,79.2010721 C104.350568,79.2104156 103.692879,79.0806458 103.072535,79.4440011 C102.533105,79.7647919 102.014423,79.9973393 101.531011,80.4146788 C101.770642,80.3980683 101.994713,80.1395669 102.189738,80.0181025 C102.486424,79.8405774 102.811119,79.7315709 103.141001,79.6474801 C103.266522,79.6163353 103.837072,79.4315432 103.869231,79.7170366 C103.904501,80.0502854 103.239551,79.9028669 103.147225,80.0077209 C103.260298,80.0731248 103.440799,80.0471709 103.51134,80.087659 C103.524826,80.093888 103.396193,80.4915025 103.449098,80.5849367 C103.630637,80.9057275 104.069442,80.8050262 104.361979,80.8444762 C104.439781,80.8569341 104.71987,80.4478999 104.817382,80.3866485 C104.966762,80.291138 104.995809,80.6638367 104.8734,80.7416986 C104.260317,81.1424275 103.460509,81.1725341 102.89722,81.6428197 C102.701158,81.8037342 102.534143,81.5244697 102.703233,81.3749749 C102.993695,81.1216644 103.285195,81.1133591 103.623375,80.9887802 C103.685617,80.9970854 103.142038,80.9296052 103.36196,80.8517433 C102.663813,81.1019394 101.793464,81.2991894 101.172083,81.7154908 C101.050711,81.8037342 100.943863,81.9117026 100.853612,82.0321289 C100.773735,82.1473645 100.853612,82.4172855 100.800707,82.466079 C100.534104,82.7058935 100.009198,82.5792382 99.6990256,82.7629922 C99.734296,82.8065948 99.9096106,82.7858316 99.9511051,82.7879079 C99.9241337,82.9021053 99.4666559,82.9519369 99.3525458,83.083783 C99.324537,83.1159659 98.681371,83.7222501 98.7207909,83.5301909 C98.5257663,84.4697239 98.1346799,83.7201738 98.5465136,83.4149554 C98.3649748,83.5301909 98.3359286,83.6215488 98.2446406,83.8073791 C98.1429788,84.0087817 98.0776249,83.7969975 98.0029346,83.8769357 C98.0765875,83.9340344 98.1357173,83.9994383 98.1875855,84.0793765 C98.1440162,84.1634673 98.1077085,84.1894212 98.0796996,84.1530857 C98.080737,84.1167502 98.0714007,84.1063686 98.0527281,84.1302462 C98.2290801,84.299466 97.9365433,84.3046567 97.98115,84.4406554 C98.0309435,84.5808068 98.2041834,84.5133265 98.0911106,84.713691 C98.0558402,84.7759805 97.770565,84.8735673 97.804798,84.9192463 C97.7716024,84.8735673 98.1927723,85.0022989 97.9593653,85.0843134 C97.8846751,85.108191 97.5890262,85.3230897 97.5921383,85.3230897 C97.6201471,85.3355476 97.6917253,85.3334713 97.670978,85.3874555 C97.6357076,85.4736226 96.9749064,85.7497727 96.8690953,85.8172529 C96.5226155,86.0466858 96.1657621,86.290653 95.8389923,86.5439635 C95.3275716,86.9446925 95.2279847,87.3713754 95.217611,87.9890794 C95.2144989,88.3524347 95.4136729,89.7373374 94.8379356,89.8671072 C94.2632357,90.0020677 94.5568098,87.9641636 94.406392,87.6890518 C94.318216,87.526061 94.2279653,87.5935412 94.1045189,87.6568689 C93.7839733,87.821936 93.8939339,87.5914649 93.6626017,87.4575425 C93.5225574,87.375528 92.4250258,87.4160162 92.3679708,87.4980307 C92.3793818,87.4824583 92.43125,87.9226373 92.4582215,87.9620873 C92.4499226,87.9454768 91.9882954,88.0575978 91.9094557,87.9901176 C91.8959699,87.9786978 91.8150555,87.6485636 91.7133938,87.7586083 C91.5411913,87.9319807 91.4582021,87.7222728 91.2828875,87.7378452 C90.9353704,87.7689899 90.831634,87.979736 90.5837039,88.1614136 C90.165646,88.4666321 89.8274652,88.591211 89.6521506,89.1383203 C89.4156315,89.8951375 88.879314,90.5948559 88.7859512,91.4222678 C88.6977752,92.2143824 88.7506808,93.5536062 89.7662607,93.1995943 C90.1096283,93.0822825 90.1262261,93.2203575 90.3710442,92.9846956 C90.6812161,92.6888206 90.6729172,92.0970705 90.9986497,91.8728284 C91.1552917,91.7638218 92.0048932,91.5125876 92.1138165,91.7690126 C92.2082166,91.9807968 91.696796,92.4926087 91.6501146,92.7417666 C91.6252178,92.8736127 91.5837232,93.000268 91.5214814,93.1206943 C91.4592395,93.2556548 91.3959603,93.0802061 91.3544657,93.1393811 C91.1169092,93.4560193 91.252804,93.9782128 90.9675287,94.3291102 C90.6905524,94.6644352 91.3295689,94.5408944 91.4934725,94.5575049 C91.7631873,94.584497 91.9914075,94.4484983 92.2683838,94.4941773 C92.6252372,94.5575049 92.4115401,94.6426339 92.630424,94.794205 C93.1055369,95.1243392 92.4250258,96.2912288 92.4188016,96.8923222 C92.4156895,97.7062381 93.1957876,98.3457434 93.8700745,97.8432749 C94.1221541,97.6512157 94.5806692,97.7529552 94.7497596,98.0031513 C95.0869031,98.4952381 95.1813033,98.040525 95.4831763,97.7965578 C95.6968734,97.6262999 95.6481173,97.8287407 95.6979108,97.6024223 C95.7445922,97.3927144 95.738368,97.1684723 95.9209441,97.0179393 C96.1574632,96.8238038 96.6460619,96.7677433 96.9562339,96.6348591 C97.1014649,96.5725696 97.5402701,95.9995064 97.7114352,96.2673511 C97.8794883,96.5341577 97.1782299,96.5185854 97.4448326,96.9577262 C97.6315582,97.2608683 97.0599703,97.534942 97.3960764,97.8941447 C97.8058354,98.330171 97.5558305,96.9649933 97.5361206,97.0376643 C97.6325955,96.7324459 98.4116562,96.5902183 98.6606237,96.6576985 C99.2187258,96.8009643 98.80378,97.1985788 99.5154121,97.1030683 C99.6253727,97.0895722 99.9064985,97.0013288 100.024758,97.1196788 C100.173101,97.2733262 100.381611,97.3854473 100.601533,97.3075854 C101.088057,97.1352512 101.324576,96.9691459 101.873342,96.9847183 C101.498853,97.1051446 101.706326,97.4570802 101.986414,97.3117381 C101.98019,97.3169288 101.975003,97.3200433 101.986414,97.3117381 C101.931434,97.3947907 102.538292,97.5276749 102.541404,97.7674894 C102.547628,98.0778986 103.20428,98.211821 103.477107,98.4443684 C103.60574,98.5523368 103.620263,98.8648224 103.762382,98.9073869 C103.995789,98.9759053 104.157618,99.1575829 104.322559,99.3195356 C104.565302,99.5479303 105.430464,99.3039632 105.763458,99.3714435 C106.290439,99.4752593 106.592313,99.7244172 106.999997,100.042094 C107.421167,100.379495 107.4554,100.762575 107.662873,101.241166 C107.796693,101.530812 108.22305,101.397928 108.041511,101.856794 C107.98653,101.985525 107.746899,102.113219 107.658723,102.22534 C107.370336,102.585581 107.75831,102.334346 107.653536,102.611535 C107.709554,102.625031 108.850655,102.169279 108.863103,102.583504 C108.882813,103.319558 108.096491,103.033027 107.855822,103.359008 C108.107902,103.520961 108.452307,103.08182 108.371393,103.601937 C108.488615,103.29049 108.825758,103.26246 108.937794,102.994615 C109.065389,102.691473 109.145267,102.575199 109.499008,102.685244 C110.204416,102.900142 111.158791,102.985271 110.878703,103.906118 C111.116259,103.718211 111.323732,103.485664 111.659838,103.529266 C111.998019,103.572869 112.527075,103.827218 112.868368,103.708868 C113.82793,103.375619 114.401592,104.978535 115.41406,104.760522 C116.232541,104.585073 116.018844,106.534734 115.743942,106.928195 C115.445181,107.352802 115.026086,107.681898 114.733549,108.113772 C114.557197,108.372273 114.454498,108.940146 114.145363,108.723171 C113.990796,108.617278 113.979385,110.11015 114.004282,110.225385 C114.092458,110.636496 113.870462,111.187758 113.669213,111.516854 C113.431657,111.900972 113.632905,112.384754 113.206548,112.767834 C112.992851,112.96197 113.132896,113.34505 112.87148,113.438484 C112.718987,113.492468 112.591391,113.789381 112.517738,113.79561 C112.006318,113.856862 111.598634,113.841289 111.157754,114.076951 C110.682641,114.335453 110.195079,114.541008 109.743826,115.017522 C109.336142,115.452511 109.736564,115.924872 109.555026,116.403463 C109.52183,116.48963 108.681565,117.465499 108.825758,117.551666 C108.73862,117.493529 108.867253,117.393866 108.82887,117.326386 C108.700237,117.088648 108.449195,117.629528 108.426373,117.67313 C108.353757,117.749954 108.27803,117.829892 108.206452,117.908792 C108.211639,118.010532 108.210601,118.115386 108.200227,118.219202 C108.224087,118.170408 107.381747,118.628236 107.711629,118.720632 C107.786319,118.743471 107.794618,118.387383 107.959559,118.503657 C108.114126,118.613702 107.567435,119.207528 107.459549,119.26255 C107.167012,119.417236 105.738562,119.061148 105.721964,119.083987 C105.574658,119.327954 106.205376,119.40374 106.308075,119.547006 C106.304963,119.661203 106.311187,119.777477 106.342308,119.890636 C106.415961,119.963307 106.76244,119.99549 106.662853,120.185473 C106.18774,121.092823 105.598517,120.947481 104.68045,121.054411 C104.732318,121.294225 104.81012,121.52262 104.920081,121.741672 C105.096433,122.099836 103.953257,121.801885 103.923174,121.814343 C103.834998,121.840297 104.414885,122.641755 104.296625,122.760105 C104.065293,122.988499 104.541443,123.177444 104.134796,123.394419 C103.70014,123.628005 103.866119,123.913498 104.264467,124.084794 C104.485425,124.17719 104.94394,124.246747 104.589162,124.557156 C104.351605,124.764788 104.394137,125.008755 104.199113,125.258951 C104.127535,125.352385 104.761364,125.944135 104.845391,126.01473 C105.029004,126.17253 105.251,126.296071 105.475071,126.374971 C105.58192,126.412344 105.956408,126.417535 106.021762,126.493321 C106.022799,126.498511 105.25515,126.743517 105.12133,126.720677 C105.120292,126.718601 105.116143,126.718601 105.111993,126.717563 C105.113031,126.718601 105.116143,126.720677 105.120292,126.720677 C105.113031,126.718601 105.113031,126.718601 105.107844,126.717563 L105.104732,126.717563 L105.106807,126.717563 L105.099545,126.717563 C103.829811,126.443489 102.65344,125.853815 101.915873,124.742986 C101.710475,124.43673 101.892014,124.558194 101.952181,124.290349 C102.034133,123.898964 101.457358,124.224945 101.485367,123.952948 C101.508189,123.695485 101.241587,123.235581 101.358809,123.065323 C101.455284,122.932439 101.579767,123.225199 101.630598,123.232466 C101.825623,123.267764 101.032039,121.548574 101.27582,122.514061 C101.35051,122.812012 101.108804,122.958393 101.101542,122.736227 C101.079758,122.425818 100.928302,122.18808 100.81523,121.916082 C100.678298,121.591139 100.751951,121.393889 100.572486,121.075174 C100.292398,120.581011 100.339079,120.540523 100.349453,119.994452 C100.357752,119.497174 100.402359,118.998858 100.265427,118.513 C100.192811,118.270071 100.069365,118.072821 99.9521425,117.852732 C99.8701907,117.689741 100.021646,117.454079 99.9417689,117.349225 C99.6907267,117.00248 99.7840895,116.575797 99.7623048,116.178183 C99.734296,115.62173 99.6004759,115.088117 99.5154121,114.537893 C99.3919657,113.734359 99.2726688,112.872688 99.0288881,112.022437 C98.9884309,111.879171 98.390909,111.473251 98.2425658,111.37774 C97.7487803,111.059026 97.1709683,110.888768 96.7000049,110.529565 C96.4883825,110.364498 96.2943953,110.172439 96.1211555,109.962731 C95.9883728,109.798702 96.082773,109.591071 95.9645134,109.402126 C95.6782008,108.934955 95.3327585,108.510348 95.0640811,108.023452 C94.6107528,107.206422 94.2663478,106.453757 93.54123,105.872389 C93.6107334,105.925335 93.4364562,105.337737 93.4406057,105.352272 C93.2995241,104.75014 93.6418544,104.784399 93.8690372,104.309961 C93.9758857,104.07949 93.3337571,104.07949 93.495586,103.731707 C93.5318937,103.648654 93.4572035,103.320596 93.4738013,103.252078 C93.5235948,103.031989 93.6501533,102.844082 93.728993,102.633336 C93.7787865,102.481765 93.6605269,102.349919 93.8182063,102.230531 C93.9167559,102.157859 94.1346025,102.137096 94.1854334,102.010441 C94.3119918,101.694841 94.2383389,101.487209 94.5599219,101.304494 C95.4333828,100.806178 94.4717459,97.7612605 94.0267166,98.0010749 C93.5318937,98.2699579 93.8503646,99.2416737 93.361766,98.6997553 C93.1387326,98.4516355 92.5629953,98.435025 92.3555224,98.2658052 C92.3617466,98.2678816 92.0443131,97.3366538 91.8741853,97.4809578 C91.8679611,97.4861486 91.9239788,97.7529552 91.8088313,97.6553683 C91.5443034,97.4321644 91.620031,97.1383657 91.6252178,96.8040788 C91.6729366,96.824842 92.1916188,97.1425183 91.9945196,96.7604762 C91.6843476,96.1635353 91.7745983,96.6442025 91.6293673,96.8071933 C91.6241804,96.8020025 91.6241804,96.8009643 91.6241804,96.8040788 C91.3814372,96.7085683 91.042219,95.8136761 91.030808,95.8250958 C90.6542447,96.181184 89.6096186,95.2042774 89.4716491,94.906326 C89.0120967,93.9086562 88.5981883,94.9032115 87.9124903,94.3010799 C87.4404895,93.8858167 86.4757405,93.1487246 86.5825891,92.4054034 C86.6489804,91.9787205 86.8792753,91.6485863 86.8854995,91.1949112 C86.8937984,90.7443507 86.935293,90.1536388 86.7724268,89.7311085 C86.6821761,89.5006374 86.8668269,89.0168558 86.8689017,88.7407058 C86.8709764,88.1863294 86.9985722,87.6371439 87.225755,87.1325991 C87.3056321,86.9561122 87.225755,86.6778859 87.0680756,86.9332727 C86.8087345,87.3630702 86.7330069,87.9319807 86.6303078,88.4157623 C86.5763649,88.6669966 86.2630808,90.9187612 86.1365223,90.9021507 C86.1396344,90.9021507 86.0960651,90.0975783 86.0981399,90.0560519 C86.1302982,89.6013388 86.2620434,89.3521808 86.2163994,88.8818953 C86.1832037,88.5548755 86.5691033,88.3711215 86.5691033,88.0088044 C86.5639165,87.5914649 86.7693147,87.2166899 86.9072841,86.8304951 C87.069113,86.3778582 87.3108189,85.9459845 87.3056321,85.4528595 C87.30252,85.0282529 87.7433999,84.5631581 87.9404992,84.2070699 C88.4446583,83.3152922 89.0484044,82.5179869 89.7268408,81.74975 C90.8752033,80.4468617 92.0847703,79.0629971 93.4374936,77.9667023 C93.5702762,77.8618483 93.6957973,77.7518036 93.8306547,77.6479878 C93.7321051,77.7248115 93.6325181,77.8016352 93.5391553,77.8784589 C93.5038849,77.9044128 93.4706892,77.938672 93.4374936,77.9667023 C86.2641182,83.6039001 81.7453585,92.4272048 81.9984754,102.245065 C82.372964,116.819765 93.1076117,128.682796 106.967838,130.970896 C106.237534,130.849432 105.516566,130.696822 104.799747,130.518259 C104.915932,130.517221 105.942922,130.735234 105.960558,130.650105 C105.970931,130.600274 105.014481,130.367726 104.864063,130.267025 C105.657647,130.226537 106.595425,130.355268 107.379672,130.492305 C107.384859,130.494381 108.121388,130.283635 108.298777,130.335543 C108.103753,130.21927 107.24689,130.030325 107.243777,129.940005 C107.238591,129.832037 108.20334,129.690847 108.231348,129.883945 C108.195041,129.651397 108.355832,129.68358 108.017651,129.533047 C108.017651,129.533047 107.736526,129.512284 107.739638,129.447918 C107.735488,129.526818 108.226162,129.062762 108.347533,128.941297 C108.35272,128.936106 108.355832,128.92261 108.378654,128.913267 C108.753143,129.017083 109.325768,128.493851 109.798806,128.584171 C109.752125,128.610125 109.246928,128.802184 109.337179,128.837481 C109.1795,128.773116 108.910822,128.946488 108.921196,129.115708 C108.921196,129.133356 109.402533,129.730297 109.448177,129.783243 C109.614155,129.975303 109.846525,130.096767 110.047774,130.242109 C110.212715,130.35423 110.231387,130.598197 110.44301,130.63038 C110.762518,130.678135 111.080989,130.725891 111.402572,130.767417 C112.932684,130.955324 114.310304,130.73731 115.78025,130.291941 C116.481508,130.085347 117.183804,129.945196 117.899585,129.783243 C118.517855,129.641016 119.23986,129.716801 119.790701,129.381476 C119.99195,129.257935 119.903774,129.494635 120.098798,129.488406 C120.374737,129.476987 120.646527,129.467643 120.922465,129.439613 C121.490941,129.374209 122.129958,129.411583 122.669387,129.24963 C122.381,129.334759 122.755489,129.226791 122.669387,129.24963 C122.799058,129.15412 122.889309,129.151005 122.944289,129.237172 C122.240956,129.520589 121.526212,129.778052 120.804206,130.007485 C133.226646,126.124775 142.087813,114.379055 141.739259,100.722087 Z M99.5392714,110.884615 C99.4230866,110.755884 99.2405105,110.557596 99.0849058,110.476619 C98.9438242,110.403948 98.9220396,110.683213 98.9666462,110.724739 C99.0641585,110.827517 99.7986126,111.166994 99.5392714,110.884615 C99.6357463,110.993622 99.4210119,110.753808 99.5392714,110.884615 Z M104.319447,125.938944 C104.063218,125.850701 104.230234,126.147614 104.23957,126.17253 C104.329821,126.435184 104.332933,126.186026 104.481276,126.306452 C104.499948,126.322025 104.523808,126.339673 104.544555,126.360436 C104.551817,126.312681 104.673188,126.17253 104.623395,126.14969 C104.544555,126.162148 104.463641,126.163186 104.380651,126.153843 C104.236458,126.090515 104.415922,125.972165 104.319447,125.938944 Z M104.091227,100.611004 C104.104713,100.737659 104.29455,100.199894 104.360942,100.11165 C104.178365,100.217542 104.068405,100.398182 104.091227,100.611004 C104.094339,100.63592 104.06633,100.3878 104.091227,100.611004 Z M108.400439,104.878872 C108.478241,105.080274 108.397327,104.546661 108.29774,104.403395 C108.191929,104.647362 108.321599,104.673316 108.400439,104.878872 Z M111.887021,108.033834 C111.850713,108.01307 111.867311,108.021376 111.889096,108.034872 C111.889096,108.034872 111.889096,108.034872 111.887021,108.033834 C111.889096,108.034872 111.889096,108.033834 111.892208,108.034872 L111.892208,108.034872 C111.922291,108.050444 111.953412,108.068093 111.894282,108.034872 C112.041588,108.108581 112.062335,107.828278 112.097606,107.752493 C112.18267,107.577044 112.230389,107.833469 112.29678,107.778447 C112.337237,107.742111 112.224164,107.484648 112.409853,107.530327 C112.252173,107.49503 112.384956,107.339306 112.48973,107.335153 C112.849695,107.328924 112.82791,107.142056 112.902601,106.938577 C112.809238,106.935463 112.779154,107.205384 112.605914,107.21888 C112.44616,107.232376 112.115241,107.465961 112.023953,107.435855 C112.23765,107.623761 111.685772,107.921713 111.887021,108.033834 Z M104.925268,77.9075273 C104.92423,77.747651 104.322559,77.9044128 104.247869,78.0902431 C104.349531,77.9822747 104.929417,78.0030378 104.925268,77.9075273 Z M106.183591,77.9147944 C106.114088,77.899222 105.703291,77.9801983 105.713665,78.1047773 C105.720926,78.1961352 106.150395,77.9355576 106.183591,77.9147944 Z M102.447004,74.8117402 C102.393061,74.7650231 102.106749,74.935281 102.13372,74.9768073 C102.181439,75.0411731 102.395136,74.8439231 102.447004,74.8117402 Z M105.239589,74.5978797 C105.237515,74.6612073 105.520715,74.6311007 105.537313,74.5438954 C105.514491,74.4805678 105.467809,74.4494231 105.399343,74.4494231 C105.311167,74.4608428 105.259299,74.5106744 105.239589,74.5978797 Z M123.643473,75.6349995 C123.662145,75.6817166 123.825011,75.9049205 123.89244,75.789685 C123.998251,75.6194271 123.610277,75.5374126 123.641398,75.6308468 C123.670444,75.7035179 123.652809,75.6547245 123.643473,75.6349995 Z M124.441206,77.5254852 C124.493074,77.5753167 124.575026,77.6895141 124.575026,77.629301 C124.578138,77.6023088 124.493074,77.5493628 124.441206,77.5254852 Z M131.639478,97.8432749 C131.664375,97.9564342 131.749439,98.0270289 131.892595,98.06025 C131.920604,97.9533197 131.933052,97.8484657 131.927865,97.7394591 C131.993219,97.7332302 131.873922,97.0926867 131.71728,97.3563788 C131.64259,97.4840723 132.128077,97.8640381 131.639478,97.8432749 Z M108.400439,104.878872 C108.41185,104.90794 108.348571,104.743911 108.400439,104.878872 L108.400439,104.878872 Z M121.455671,77.1621299 C121.390317,76.985643 121.161059,76.9534601 121.001305,76.9565746 C120.551089,76.9617654 120.822879,77.0479325 120.79487,77.2586786 C120.784496,77.327197 120.557313,77.2555641 120.513744,77.2950141 C120.536566,77.2721746 121.123714,78.1649905 121.278282,78.1597997 C122.200499,78.0725944 121.635135,77.6095759 121.46397,77.1777022 C121.48368,77.2327246 121.49924,77.2825562 121.455671,77.1621299 Z M121.455671,77.1621299 C121.460858,77.1652443 121.462932,77.1725114 121.462932,77.1777022 C121.442185,77.1206035 121.419363,77.0593522 121.455671,77.1621299 Z M123.295955,78.339401 C123.476457,78.3165615 123.886216,78.3342102 124.024185,78.2096313 C124.189126,78.0622128 123.901776,78.0705181 123.868581,78.0134194 C123.775218,77.8566575 123.855095,77.6697891 123.634136,77.5867365 C123.225415,77.4320509 123.49098,77.6905523 123.108192,77.3884483 C122.840552,77.1797785 122.111285,76.6783482 121.77103,76.689768 C121.563557,76.6949588 121.608163,76.3959693 121.516875,76.2724285 C121.418326,76.1426587 121.183881,76.2340166 121.050061,76.2288258 C121.256497,76.2350548 120.453577,75.7647692 120.577023,76.0388429 C120.642377,76.1789943 120.466025,76.3689772 120.71603,76.4084272 C120.721217,76.4084272 121.065622,76.7541338 121.067697,76.7655535 C121.098817,76.8652167 122.904869,77.459043 122.122696,77.5192562 C122.189088,77.6095759 122.273114,77.6729036 122.372701,77.7154681 C122.508596,77.8192839 122.255479,77.9760457 122.327057,78.0186102 C122.645528,78.2168984 122.84159,77.9656641 122.675611,78.5065444 C122.631005,78.6466958 123.228527,78.325905 123.295955,78.339401 C123.176659,78.3165615 123.494092,78.3134471 123.295955,78.339401 Z M107.515567,79.7429906 C107.498969,79.8810656 107.664947,80.0305604 107.586108,80.1810933 C107.454362,80.4312893 107.042529,80.3814577 107.136929,80.1883604 C107.219918,80.0212169 106.513473,80.3648472 106.49895,80.3264354 C106.470941,80.2589551 106.682563,80.271413 106.669078,80.1779788 C106.655592,80.0575525 104.857839,80.153063 105.591256,79.8810656 C105.602667,79.8737985 106.752067,78.3902707 106.923232,78.7037945 C106.979249,78.8003431 106.38069,79.1875761 106.460567,79.2706287 C106.491688,79.3069642 106.63277,79.1616221 106.710572,79.2207971 C106.748955,79.2498656 106.798748,79.600763 106.980287,79.4377721 C107.059127,79.37133 107.523866,79.3661392 107.375523,79.5623511 C107.257263,79.7149603 107.523866,79.6807011 107.515567,79.7429906 Z M107.41183,79.8644551 C107.377597,79.8395393 107.22718,79.9713853 107.294608,80.0201788 C107.233404,79.9734617 107.354775,80.0637814 107.294608,80.0201788 C107.353738,80.0658577 107.454362,79.8924853 107.41183,79.8644551 Z M107.51453,79.9724235 C107.558099,80.0471709 107.552912,79.9319353 107.51453,79.9724235 L107.51453,79.9724235 Z M104.04662,72.91814 C104.033134,72.9191782 104.016537,72.9191782 103.975042,72.924369 C104.183552,72.9056822 104.246831,72.8662321 104.23957,72.6523716 C104.003051,72.7925229 103.725037,72.8122479 103.508228,72.9991164 C103.661758,72.9575901 103.813213,72.9326743 103.97193,72.9254072 C103.984378,72.9233308 104.022761,72.9202164 104.04662,72.91814 Z M116.505368,72.2433374 C116.683794,72.2734439 116.432752,72.142636 116.472172,72.1166821 C116.144365,72.2651387 115.663028,71.8986689 115.283352,72.0087137 C115.683775,72.1260255 116.091459,72.1727426 116.505368,72.2433374 C116.101833,72.1727426 116.527152,72.2485282 116.505368,72.2433374 Z M103.091207,73.2586559 C102.828754,73.2181677 103.174197,73.2742282 103.091207,73.2586559 L103.091207,73.2586559 Z M115.180653,72.0201334 C115.216961,72.0367439 115.250157,72.0336295 115.282315,72.0087137 C115.212811,71.9588821 115.176504,71.9630347 115.180653,72.0201334 Z M107.342327,125.554826 L107.346477,125.554826 C107.344402,125.554826 107.342327,125.55794 107.342327,125.55794 C107.292534,125.604657 107.276973,125.654489 107.319505,125.705359 C107.391083,125.793602 107.825739,125.565207 107.766609,125.494613 C107.677396,125.40014 107.445026,125.460353 107.342327,125.554826 Z M103.193907,73.5202717 C103.209467,73.5275388 103.493705,73.5140427 103.193907,73.5202717 L103.193907,73.5202717 Z M108.642145,117.787328 C108.682602,117.823663 108.855842,117.647177 108.789451,117.600459 C108.743806,117.567238 108.595463,117.737496 108.642145,117.787328 Z M103.193907,73.5202717 C103.413828,73.5130046 103.787279,73.3687006 103.91695,73.1828703 C103.761345,73.1371914 103.079796,73.476669 103.193907,73.5202717 Z M103.951183,73.3230217 C103.906576,73.3147164 103.874418,73.3261361 103.859895,73.3697388 C103.898277,73.3718151 103.942884,73.3821967 103.951183,73.3230217 Z" id="Shape" fill="#303E48"></path>
                <path d="M199.625234,59.4947574 L87.8564726,2.46873967 C80.7992821,-1.13366851 72.0843831,1.69842645 68.4888778,8.75893886 L60.602833,24.2451414 L50.188731,44.6843957 L100.65755,44.6843957 L65.1817598,26.5851495 L73.0719541,11.0968706 C75.3894263,6.54662421 80.9745967,4.72984775 85.5224026,7.05116899 L197.289089,64.079263 C201.837932,66.4005843 203.652283,71.9900268 201.330661,76.5392351 L193.442542,92.0243995 L159.393127,74.6518639 L159.393127,118.798494 L175.592611,127.063269 L167.702417,142.549472 C165.706528,146.471633 161.283205,148.352775 157.189765,147.317732 C156.357799,148.921686 155.305911,150.392755 154.075597,151.699796 C160.900418,154.452991 168.879825,151.566912 172.281344,144.886366 L180.1705,129.402239 L198.020431,94.3633694 L205.911663,78.8761287 C209.507168,71.8156163 206.677238,63.0950893 199.625234,59.4947574 Z" id="Shape" fill="#485761" fill-rule="nonzero"></path>
            </g>
            <g id="if_store-building_532794" transform="translate(258.362475, 153.647381)" fill-rule="nonzero">
                <g id="_x33_">
                    <g id="Group">
                        <rect id="Rectangle-path" fill="#303E48" x="82.9454623" y="0.146772796" width="4.74281645" height="83.8340145"></rect>
                        <rect id="Rectangle-path" fill="#303E48" x="173.084345" y="0.146772796" width="4.74281645" height="83.8340145"></rect>
                        <g transform="translate(1.371351, 61.041022)">
                            <rect id="Rectangle-path" fill="#303E48" x="5.9989737" y="32.976555" width="200.455819" height="73.1799556"></rect>
                            <rect id="Rectangle-path" fill="#F4F8F8" x="14.8153874" y="56.3449788" width="177.877901" height="49.1627138"></rect>
                            <rect id="Rectangle-path" fill="#303E48" x="22.7534511" y="0.233876277" width="35.5728375" height="25.5775601"></rect>
                            <rect id="Rectangle-path" fill="#303E48" x="46.9564198" y="63.5279297" width="3.21581743" height="42.3494383"></rect>
                            <rect id="Rectangle-path" fill="#484B4D" x="121.966561" y="63.5279297" width="1.61133709" height="41.429022"></rect>
                            <rect id="Rectangle-path" fill="#303E48" x="48.0308731" y="93.6334991" width="146.810636" height="12.2438689"></rect>
                            <polygon id="Shape" fill="#FC6E51" points="18.3870704 47.3205095 189.833337 47.3205095 205.555187 61.31605 0.523855973 61.31605"></polygon>
                            <polygon id="Shape" fill="#F4F8F8" points="13.574315 61.2227738 6.68327771 61.2227738 23.2629078 47.4117281 29.0102387 47.4117281"></polygon>
                            <polygon id="Shape" fill="#F4F8F8" points="28.982126 61.2227738 22.0972597 61.2227738 36.1179494 47.4117281 41.872137 47.4117281"></polygon>
                            <polygon id="Shape" fill="#F4F8F8" points="44.3967937 61.2227738 37.5057564 61.2227738 48.9723054 47.4117281 54.7203219 47.4117281"></polygon>
                            <polygon id="Shape" fill="#F4F8F8" points="59.8052903 61.2227738 52.9135673 61.2227738 61.827347 47.4117281 67.5753635 47.4117281"></polygon>
                            <polygon id="Shape" fill="#F4F8F8" points="75.2124156 61.2227738 68.3213783 61.2227738 74.6823886 47.4117281 80.4372618 47.4117281"></polygon>
                            <polygon id="Shape" fill="#F4F8F8" points="90.6209122 61.2227738 83.7291892 61.2227738 87.5374301 47.4117281 93.2923034 47.4117281"></polygon>
                            <polygon id="Shape" fill="#F4F8F8" points="106.028723 61.2227738 99.1445426 61.2227738 100.400014 47.4117281 106.147345 47.4117281"></polygon>
                            <polygon id="Shape" fill="#F4F8F8" points="121.435848 61.2227738 114.551668 61.2227738 113.255056 47.4117281 119.002387 47.4117281"></polygon>
                            <polygon id="Shape" fill="#F4F8F8" points="136.844345 61.2227738 129.960164 61.2227738 126.110097 47.4117281 131.857428 47.4117281"></polygon>
                            <polygon id="Shape" fill="#F4F8F8" points="152.259698 61.2227738 145.367975 61.2227738 138.971996 47.4117281 144.718641 47.4117281"></polygon>
                            <polygon id="Shape" fill="#F4F8F8" points="167.660653 61.2227738 160.775101 61.2227738 151.819495 47.4117281 157.567511 47.4117281"></polygon>
                            <polygon id="Shape" fill="#F4F8F8" points="183.082177 61.2227738 176.183597 61.2227738 164.682079 47.4117281 170.42941 47.4117281"></polygon>
                            <polygon id="Shape" fill="#F4F8F8" points="198.483131 61.2227738 191.598951 61.2227738 177.537121 47.4117281 183.284451 47.4117281"></polygon>
                            <rect id="Rectangle-path" fill="#FC6E51" x="0.161133709" y="61.1349845" width="205.394053" height="3.12612337"></rect>
                        </g>
                        <rect id="Rectangle-path" fill="#303E48" x="0.514256518" y="83.9814732" width="214.273549" height="10.2802684"></rect>
                        <rect id="Rectangle-path" fill="#303E48" x="76.6187358" y="6.47514936" width="109.118376" height="66.4338939"></rect>
                        <rect id="Rectangle-path" fill="#303E48" x="80.5737112" y="10.427727" width="100.413042" height="58.5287385"></rect>
                        <rect id="Rectangle-path" fill="#303E48" x="76.6187358" y="1.73041011" width="107.924616" height="1.18584189"></rect>
                        <rect id="Rectangle-path" fill="#303E48" x="76.6187358" y="75.6785224" width="107.924616" height="1.18241261"></rect>
                        <rect id="Rectangle-path" fill="#303E48" x="52.1716666" y="157.950161" width="69.5823352" height="7.05332443"></rect>
                        <rect id="Rectangle-path" fill="#303E48" x="125.891367" y="157.489267" width="68.3618331" height="7.05401029"></rect>
                    </g>
                    <g id="Group" transform="translate(83.652394, 19.889771)" fill="#FFFFFF">
                        <path d="M28.7901369,26.7647737 C27.5346653,28.024002 26.1331449,28.753065 24.591061,28.9519627 C22.9865807,29.2098439 21.6200297,29.2098439 20.4756375,28.9519627 C20.1334855,28.8641734 19.7920192,28.9937998 19.4505529,29.3387845 C16.7928752,32.1089495 13.5777434,33.4936891 9.80378626,33.4936891 C9.17639331,33.4936891 8.54831468,33.451852 7.92023605,33.3647485 C7.29215742,33.2810743 6.64419421,33.1658508 5.98800289,33.0231931 C3.93029115,32.5657284 2.40260645,31.7392741 1.40563448,30.5356 C0.436089527,29.4786987 0.0315410664,28.3518403 0.205702607,27.1515955 C0.463516541,25.0659129 1.76081432,23.9212222 4.10445269,23.7223245 C5.27627187,23.607101 7.53625785,23.9349393 10.8768682,24.7058394 L16.5336899,26.1228142 C17.0431467,26.2064884 17.4195824,26.0350248 17.6499694,25.606366 C18.4172401,24.2072234 18.8005326,22.9795445 18.8005326,21.9226432 C18.8005326,19.8643947 17.1473693,18.0647134 13.834186,16.518798 C10.6327678,15.032552 9.02828743,12.8494781 9.02828743,9.96066032 C9.02828743,8.82008481 9.33478431,7.64796001 9.9278935,6.44428592 C10.8487555,4.58836449 12.2927878,3.10211848 14.2593047,1.98966299 C16.1428549,0.960881713 18.1443413,0.444433512 20.2575928,0.444433512 C20.4879797,0.444433512 20.7039674,0.455407179 20.8993849,0.465694991 C21.1016591,0.482841346 21.3176469,0.504102826 21.5480338,0.532222847 C23.4308983,0.761983999 24.8475036,1.35936299 25.7889359,2.33190423 C26.5280939,3.13435362 26.9052153,3.98892794 26.9052153,4.90317157 C26.9052153,5.30439626 26.8421332,5.61783163 26.7303681,5.84827863 C26.3052494,6.84619647 25.6847132,7.24742117 24.8886441,7.04852345 C24.6863699,6.98954 24.5540345,6.8427672 24.4772389,6.59860311 C24.4073,6.35375317 24.3305044,6.08901345 24.246852,5.80301226 C23.8704162,4.91688865 22.956411,4.26121205 21.4986651,3.83186733 C20.9892084,3.68920966 20.4173551,3.61925253 19.7899622,3.61925253 C16.7558487,3.61925253 14.6775667,4.77423098 13.5331745,7.09036056 C13.1910225,7.83314064 13.016861,8.49293237 13.016861,9.06150549 C13.016861,10.404408 13.9308662,11.6046528 15.7581911,12.6615541 L20.1314285,15.1073101 C22.0149787,16.5654361 22.956411,18.3651175 22.956411,20.5070401 C22.956411,22.1085096 22.6286581,23.7655334 21.9724668,25.4781112 C21.7701926,25.9108852 21.672141,26.1653371 21.672141,26.2524406 C21.672141,26.3676641 21.7839061,26.4513383 22.014293,26.5075784 C22.6423716,26.7099054 23.3328467,26.8107259 24.0720048,26.8107259 C24.6157453,26.8107259 25.3137628,26.5528448 26.1715427,26.0363966 C26.6597436,25.7503954 27.0992615,25.4431327 27.5038099,25.1152944 C27.900816,24.7874561 28.242968,24.4246392 28.5288946,24.0234145 C28.6756291,23.851951 28.7867085,23.8944739 28.8703609,24.1523551 C29.0726351,24.637254 29.142574,25.1955393 29.0863487,25.8237818 C29.034923,26.3079948 28.9300147,26.622116 28.7901369,26.7647737 Z M14.8613277,28.6522444 C14.8613277,28.4533467 14.5335749,28.2784539 13.8780692,28.1357962 C12.6781374,27.8532243 11.3527269,27.5528202 9.90938026,27.2359555 C8.47220471,26.9218343 6.86086762,26.6083989 5.08976818,26.2942777 C4.57345463,26.2668436 4.16204942,26.3957841 3.8480101,26.6810995 C3.53397079,26.9671007 3.38106519,27.323059 3.38106519,27.7524037 C3.38106519,28.2654227 3.59019617,28.6940815 4.02285732,29.0363228 C5.2227892,30.065104 6.8060136,30.5815522 8.78007295,30.5815522 C10.6073978,30.5815522 12.4072956,30.1247733 14.1790807,29.2105297 C14.6309408,29.0082027 14.8613277,28.8230221 14.8613277,28.6522444 Z" id="Shape"></path>
                        <path d="M40.7455724,26.7647737 C39.5463262,27.9650185 38.1441201,28.6940815 36.5471822,28.9519627 C35.744942,29.0946204 35.0194975,29.1645775 34.3633062,29.1645775 C32.6751735,29.1645775 31.3785614,28.8820056 30.4576994,28.3100032 C29.06235,27.3964454 28.4349571,25.9794707 28.5741492,24.0645658 C28.6022618,23.4088892 28.9718409,21.8629738 29.6904286,19.4357359 C30.031895,18.2361769 30.2903946,17.3212474 30.4576994,16.6936909 C30.6318609,16.0620191 30.7299125,15.7204638 30.7641963,15.6642237 C30.7923089,15.465326 30.6599736,15.3192391 30.374047,15.2355649 C30.1436601,15.2355649 29.8995596,15.2287063 29.6273465,15.2149892 C29.3551334,15.1978429 29.0486365,15.1765814 28.7064845,15.1484614 C28.4486706,15.0929072 28.3924452,14.8905802 28.532323,14.548339 C28.5878627,14.3775613 28.6578016,14.1786636 28.7270548,13.9489024 C28.7976793,13.7218847 28.8875028,13.4502864 29.0061246,13.1354793 C29.2015421,12.8494781 29.5018679,12.7068205 29.9057307,12.7068205 L30.589349,12.7068205 C30.7916233,12.7349405 30.9308154,12.7486576 31.0144678,12.7486576 L31.2729674,12.7486576 C31.4190162,12.7486576 31.586321,12.6059999 31.7885952,12.3193129 C32.1307472,11.0916339 32.5003263,9.81114411 32.9048747,8.4819587 C33.3025664,7.15620256 33.7276851,5.74745807 34.188459,4.26121205 C34.2995384,3.97521085 34.5998642,3.76259606 35.0873794,3.61925253 C36.1481192,3.33325134 37.21503,3.33325134 38.3031968,3.61925253 C38.7283155,3.7619102 38.8887636,4.18782565 38.7701417,4.90317157 C38.3731357,6.10273053 37.975444,7.32423684 37.5708955,8.56974804 C37.1732038,9.81182996 36.7755121,11.0916339 36.3709636,12.4071022 C36.3154239,12.66224 36.4340458,12.8330176 36.7131156,12.9201211 C37.0614387,12.9201211 37.4447313,12.9276655 37.8712213,12.9413826 C38.3038825,12.9557855 38.7571139,12.9763612 39.2453147,13.0079105 C39.4194763,13.0360305 39.5312414,13.2205253 39.5867811,13.5627665 C39.6430065,13.9639912 39.5449549,14.4488901 39.2864553,15.0215784 C39.2028029,15.2513395 39.0149278,15.3802801 38.7290012,15.4084001 C38.847623,15.3802801 37.8712213,15.3631337 35.8135096,15.3631337 C35.5899794,15.3631337 35.4158179,15.4920743 35.3040528,15.7499555 C34.9906992,16.8939603 34.6416904,18.1223251 34.2508554,19.4371076 C33.8675629,20.7518901 33.4493009,22.1510326 32.9885271,23.6372786 C32.7026005,24.5789564 32.8006521,25.2943023 33.2888529,25.7826305 C33.9724712,26.4664271 34.8857908,26.8120976 36.030183,26.8120976 C36.5739236,26.8120976 37.2719411,26.5542165 38.1297209,26.0377683 C38.6179218,25.7517671 39.0574397,25.4445044 39.4619882,25.1166661 C39.8596799,24.7888278 40.2011462,24.4260109 40.4870728,24.0247862 C40.6338073,23.8533227 40.7448867,23.8958456 40.8285391,24.1537268 C41.031499,24.6386257 41.1007523,25.196911 41.0445269,25.8251535 C40.9896729,26.3079948 40.892307,26.622116 40.7455724,26.7647737 Z" id="Shape"></path>
                        <path d="M55.7419782,16.994095 C55.7419782,19.0489141 55.1282987,21.3232066 53.9009398,23.8073705 C52.0455023,27.553506 49.4296508,29.4238304 46.0609278,29.4238304 C45.0913828,29.4238304 44.1636641,29.2530527 43.2777715,28.9073822 C41.2755995,28.0528079 40.2710851,26.4513383 40.2710851,24.1070887 C40.2710851,22.8231697 40.5714109,21.2505061 41.1706911,19.3938988 C41.9167059,17.1929927 43.2284029,15.3789084 45.1188099,13.9489024 C46.7712875,12.6931034 48.3270848,12.0339975 49.7916874,11.9777575 C50.5027328,11.9777575 50.9559642,12.1204151 51.1582384,12.4064163 C51.4448507,12.7767776 51.3330856,13.1046159 50.8167721,13.3906171 C50.3841109,13.6203783 49.7004926,14.3357242 48.7590603,15.535969 C47.5035887,17.050335 46.5621565,18.508461 45.9272211,19.9069177 C44.9857888,22.0214062 44.5181582,23.6674562 44.5181582,24.8361517 C44.5181582,25.6941553 44.7759722,26.2661577 45.285429,26.5521589 C45.655008,26.7510566 46.0451573,26.852563 46.442849,26.852563 C47.6146682,26.852563 48.6747223,26.1824835 49.6161545,24.8361517 C50.1324681,24.1242351 50.6419249,22.9658274 51.1575527,21.3650437 C51.6114698,20.0783813 51.8411711,19.2368382 51.8411711,18.8356135 C51.8411711,18.4625088 51.6875798,18.1655339 51.3735405,17.9357728 C50.7461475,17.478308 50.4321082,16.763648 50.4321082,15.7904209 C50.4321082,13.9626195 51.2137781,13.0483759 52.783289,13.0483759 C53.2989169,13.0483759 53.8433431,13.2054365 54.4151963,13.5195577 C55.3024603,14.0360059 55.7419782,15.1937278 55.7419782,16.994095 Z" id="Shape"></path>
                        <path d="M76.1442484,26.7647737 C74.8819201,28.024002 73.4865707,28.753065 71.9451725,28.9519627 C69.3437202,29.3806216 67.4183438,29.3072352 66.1772714,28.7352328 C64.9348277,28.1666597 64.3142915,27.3079702 64.3142915,26.1639654 C64.3142915,25.8779642 64.3561177,25.5364089 64.4404557,25.1351842 C64.5871903,24.4795076 64.7682086,23.7915958 64.9773395,23.080365 C65.1933273,22.365705 65.4586836,21.594119 65.7720373,20.7642354 C66.2252687,19.4768871 66.5742775,18.649747 66.7978076,18.2766423 C67.0000819,17.9350869 67.0000819,17.5482652 66.7978076,17.1182346 C66.6023901,16.7204392 66.0305369,16.260231 65.0891046,15.7472121 C64.8587177,15.6045544 64.6708427,15.733495 64.5309649,16.1347197 C63.8123771,17.9069669 63.2686366,19.2430109 62.8990575,20.1428515 C62.5294785,21.0426922 62.3272043,21.5207326 62.2990916,21.5762868 C61.0991597,23.9479706 59.6002734,25.8772784 57.8003756,27.3635244 C56.6840961,28.221528 55.5054202,28.7516933 54.2430918,28.950591 C54.075787,29.0061452 53.942766,28.922471 53.8591136,28.692024 C53.6568394,28.2633651 53.5587878,27.7921833 53.5587878,27.2791643 C53.5587878,27.0212832 53.6143275,26.8779396 53.7260926,26.8505055 C54.7587197,26.6200585 55.5883869,26.2785031 56.2164655,25.8217242 C56.6696969,25.4760537 57.3176601,24.83478 58.1418419,23.8931022 C58.7136952,23.1777563 59.4322829,21.9493915 60.2832061,20.2052643 C61.2314951,18.2903594 61.9569396,16.4063179 62.4725675,14.5469673 C62.5006802,14.435173 62.5212504,14.3549281 62.5356496,14.313091 C62.5500488,14.2678246 62.5562199,14.232846 62.5562199,14.204726 C62.5287928,14.0339483 62.4307413,13.7753813 62.2558941,13.4338259 C62.0885893,13.0888413 61.9980801,12.7328829 61.9980801,12.3625217 C61.9980801,12.2472982 62.0049369,12.1183576 62.0186504,11.9756999 C62.0330496,11.8323564 62.0536198,11.6896987 62.0885893,11.5463552 C62.4026286,9.91676565 63.2117255,9.11843138 64.5302792,9.14655141 C65.6397019,9.17467143 66.2602381,9.8756144 66.3720032,11.2466369 C66.4001159,11.5045181 66.330177,11.8741935 66.1560155,12.3625217 C66.1004758,12.5332994 66.1004758,12.6594965 66.1560155,12.7466 C66.2122409,12.8302742 66.3445762,12.9249221 66.5399937,13.0257427 C66.7422679,13.1272491 67.014481,13.2520746 67.3559474,13.4125644 C67.6974137,13.569625 68.1300748,13.7890984 68.6463884,14.0750996 C69.671473,14.647102 70.3550914,15.0764467 70.6972434,15.3590186 C71.2690966,15.8473468 71.4994835,16.4611863 71.3877185,17.2046522 C71.3040661,17.6614311 70.801466,19.0043336 69.8874608,21.2333597 C69.4273726,22.318381 69.0783639,23.1969602 68.8342634,23.870469 C68.5908487,24.5405486 68.4441142,25.0076153 68.3885744,25.2620672 C68.2137272,26.0926366 68.5421657,26.5912526 69.3718329,26.7620303 C69.7139849,26.8491338 70.40446,26.8628508 71.4295447,26.8072967 C71.9739709,26.7757474 72.6719884,26.5212955 73.5290826,26.0329673 C74.5541673,25.4643942 75.3426939,24.7908854 75.8864345,24.0199853 C76.0256266,23.8485217 76.1442484,23.8910447 76.2279008,24.1489258 C76.430175,24.6338247 76.4994283,25.1921101 76.4438885,25.8203525 C76.3883488,26.3079948 76.2834405,26.622116 76.1442484,26.7647737 Z" id="Shape"></path>
                        <path d="M92.6820524,26.7647737 C91.4821205,27.9650185 90.0806,28.7077986 88.4829765,28.9937998 C87.2275049,29.2523668 85.8108996,29.3813074 84.2420744,29.3813074 C80.9563181,29.3813074 78.6407924,28.837425 77.3016684,27.7524037 C75.7534135,26.4650554 74.9861427,24.6928082 74.9861427,22.4356621 C74.9861427,20.465203 75.557996,18.3507146 76.7017025,16.0935684 C77.5251986,14.4612355 78.6833043,13.2472736 80.1684771,12.4482535 C81.3965217,11.7610276 82.6663924,11.4194722 83.9842604,11.4194722 C84.7241042,11.4194722 85.3096709,11.5209786 85.7423321,11.7191905 C87.3954954,12.4345364 88.2258482,13.819276 88.2258482,15.8775244 C88.2258482,16.3343033 88.184022,16.8192022 88.0996839,17.3356504 C87.869297,18.7066729 86.8442124,20.3780995 85.0100308,22.3519879 C84.4450343,22.9802303 83.8800378,23.5453742 83.3218981,24.0439901 C82.7637583,24.543292 82.213161,24.9932123 81.6687348,25.3937512 C81.5295427,25.5370947 81.452747,25.6207689 81.452747,25.6523182 C81.452747,25.7641124 81.6269086,25.9101994 81.9690606,26.0775478 C83.2313889,26.7928937 85.212305,27.0226549 87.9262081,26.7647737 C89.6979932,26.593996 91.1975652,25.6797524 92.4256098,24.0227287 C92.5716586,23.8512651 92.6834237,23.8937881 92.7739329,24.1516693 C92.9693503,24.6365682 93.0392892,25.1948535 92.9837495,25.8230959 C92.9261528,26.3079948 92.8287869,26.622116 92.6820524,26.7647737 Z M82.3804658,15.5572305 C81.6755915,16.0873958 81.1243085,16.7780509 80.7273025,17.6360545 C79.8132973,19.5509594 79.3600658,21.1489996 79.3600658,22.4356621 C79.3600658,23.3499057 79.6391357,23.6077869 80.210989,23.2065622 C82.1288229,22.0070032 83.5872544,20.5516206 84.5842264,18.8356135 C85.212305,17.7787122 85.5256587,16.9069915 85.5256587,16.2197656 C85.5256587,15.2499678 85.1142534,14.7616396 84.2845863,14.7616396 C83.7120473,14.7616396 83.077112,15.0263793 82.3804658,15.5572305 Z" id="Shape"></path>
                    </g>
                </g>
            </g>
            <path d="M295.06169,74.8663989 L120.862749,289.189815" id="Line" stroke="#303E48" stroke-width="5" stroke-linecap="square"></path>
        </g>
    </g>
</svg>