<?xml version="1.0" encoding="UTF-8"?>
<svg width="254px" height="256px" viewBox="0 0 254 256" version="1.1" xmlns="http://www.w3.org/2000/svg" xmlns:xlink="http://www.w3.org/1999/xlink">
    <!-- Generator: Sketch 43 (38999) - http://www.bohemiancoding.com/sketch -->
    <title>if_arrow_20_393260</title>
    <desc>Created with Sketch.</desc>
    <defs></defs>
    <g id="Page-1" stroke="none" stroke-width="1" fill="none" fill-rule="evenodd">
        <g id="if_arrow_20_393260" transform="translate(-60.000000, 0.000000)" fill-rule="nonzero" fill="#000000">
            <g id="g3026" transform="translate(84.177262, 0.167244)">
                <path d="M143.124175,0.555817724 L137.082571,15.0727254 C96.3587944,7.83390805 55.3342865,20.8852225 26.3321932,48.5747076 C15.9558998,58.4813806 7.11500401,70.2577334 0.386656109,83.6525994 L16.2690313,91.6433877 C37.6925904,48.9931446 83.6881802,25.407354 130.058744,31.9627674 L124.665779,44.9408457 L183.469485,43.4020164 L143.124175,0.555817724 Z" id="path3028"></path>
            </g>
            <g id="g3032" transform="translate(274.731430, 155.315369) rotate(120.000000) translate(-274.731430, -155.315369) translate(177.231430, 76.315369)">
                <path d="M115.20602,-10.6264452 L100.342934,-0.855806228 C126.553993,39.0329273 123.98233,90.6927749 95.1167611,127.59009 L86.5732663,116.410402 L58.4964887,168.137314 L115.761996,154.603033 L106.217744,142.106997 C132.845362,110.444271 142.058358,68.3727821 132.58953,29.4016565 C129.201754,15.4585075 123.437391,1.90029266 115.20602,-10.6264452 Z" id="path3034" transform="translate(97.353175, 78.755435) rotate(-120.000000) translate(-97.353175, -78.755435) "></path>
            </g>
            <g id="g3014" transform="translate(132.504850, 186.304912) rotate(-120.000000) translate(-132.504850, -186.304912) translate(36.504850, 89.304912)">
                <path d="M41.2999709,27.7324941 L24.3983067,84.0944345 L39.9841615,82.0735623 C54.0790713,120.976733 85.890736,150.013082 124.362755,161.295461 C138.126824,165.331937 152.750612,167.095259 167.710334,166.227131 L166.672513,148.465703 C119.042289,151.229734 75.6213204,123.167095 58.1089724,79.7189681 L72.0454324,77.9020371 L41.2999709,27.7324941 Z" id="path3016" transform="translate(96.054320, 97.088030) rotate(120.000000) translate(-96.054320, -97.088030) "></path>
            </g>
        </g>
    </g>
</svg>