<?xml version="1.0" encoding="UTF-8"?>
<svg width="300px" height="400px" viewBox="0 0 300 400" version="1.1" xmlns="http://www.w3.org/2000/svg" xmlns:xlink="http://www.w3.org/1999/xlink">
    <!-- Generator: Sketch 43 (38999) - http://www.bohemiancoding.com/sketch -->
    <title>if_vehicles-04_809740</title>
    <desc>Created with Sketch.</desc>
    <defs></defs>
    <g id="Page-1" stroke="none" stroke-width="1" fill="none" fill-rule="evenodd">
        <g id="if_vehicles-04_809740" fill-rule="nonzero">
            <path d="M233.333333,0 L66.6666667,0 C30,0 0,30 0,66.6666667 L0,316.666667 C0,326.666667 6.66666667,333.333333 16.6666667,333.333333 L50,333.333333 L18.3333333,388.333333 C16.6666667,391.666667 16.6666667,395 20,398.333333 C25,401.666667 30,398.333333 31.6666667,395 L66.6666667,333.333333 L83.3333333,333.333333 L51.6666667,388.333333 C50,391.666667 50,395 53.3333333,398.333333 C58.3333333,401.666667 63.3333333,398.333333 65,395 L100,333.333333 L200,333.333333 L235,393.333333 C236.666667,396.666667 241.666667,400 246.666667,396.666667 C250,393.333333 250,390 248.333333,386.666667 L216.666667,333.333333 L233.333333,333.333333 L268.333333,393.333333 C270,396.666667 275,400 280,396.666667 C283.333333,393.333333 283.333333,390 281.666667,386.666667 L250,333.333333 L283.333333,333.333333 C293.333333,333.333333 300,326.666667 300,316.666667 L300,66.6666667 C300,30 270,0 233.333333,0 Z M266.666667,300 L33.3333333,300 L33.3333333,66.6666667 C33.3333333,48.3333333 48.3333333,33.3333333 66.6666667,33.3333333 L233.333333,33.3333333 C251.666667,33.3333333 266.666667,48.3333333 266.666667,66.6666667 L266.666667,300 Z" id="Shape" fill="#FFB04C"></path>
            <path d="M233.333333,50 L66.6666667,50 C56.6666667,50 50,56.6666667 50,66.6666667 L50,200 L250,200 L250,66.6666667 C250,56.6666667 243.333333,50 233.333333,50 Z M233.333333,183.333333 L66.6666667,183.333333 L66.6666667,66.6666667 L233.333333,66.6666667 L233.333333,183.333333 Z" id="Shape" fill="#FA6657"></path>
            <path d="M83.3333333,216.666667 C65,216.666667 50,231.666667 50,250 C50,268.333333 65,283.333333 83.3333333,283.333333 C101.666667,283.333333 116.666667,268.333333 116.666667,250 C116.666667,231.666667 101.666667,216.666667 83.3333333,216.666667 Z M83.3333333,266.666667 C73.3333333,266.666667 66.6666667,260 66.6666667,250 C66.6666667,240 73.3333333,233.333333 83.3333333,233.333333 C93.3333333,233.333333 100,240 100,250 C100,260 93.3333333,266.666667 83.3333333,266.666667 Z" id="Shape" fill="#FA6657"></path>
            <path d="M216.666667,216.666667 C198.333333,216.666667 183.333333,231.666667 183.333333,250 C183.333333,268.333333 198.333333,283.333333 216.666667,283.333333 C235,283.333333 250,268.333333 250,250 C250,231.666667 235,216.666667 216.666667,216.666667 Z M216.666667,266.666667 C206.666667,266.666667 200,260 200,250 C200,240 206.666667,233.333333 216.666667,233.333333 C226.666667,233.333333 233.333333,240 233.333333,250 C233.333333,260 226.666667,266.666667 216.666667,266.666667 Z" id="Shape" fill="#FA6657"></path>
        </g>
    </g>
</svg>