<?xml version="1.0" encoding="UTF-8"?>
<svg width="390px" height="476px" viewBox="0 0 390 476" version="1.1" xmlns="http://www.w3.org/2000/svg" xmlns:xlink="http://www.w3.org/1999/xlink">
    <!-- Generator: Sketch 43 (38999) - http://www.bohemiancoding.com/sketch -->
    <title>if_shoeprints_1054979</title>
    <desc>Created with Sketch.</desc>
    <defs></defs>
    <g id="Page-1" stroke="none" stroke-width="1" fill="none" fill-rule="evenodd">
        <g id="if_shoeprints_1054979" fill-rule="nonzero">
            <g id="Group" transform="translate(0.000000, 86.486486)">
                <path d="M130.756757,180.940541 C136.832432,163.372973 148.324324,134.324324 132.108108,78.2378378 C115.891892,22.1513514 92.2378378,0.237837838 59.8054054,0.237837838 C59.8054054,0.237837838 4.0972973,-2.82162162 0.345945946,85.6756757 C-3.80540541,183.502703 30.5189189,207.524324 41.2864865,263.481081 L122.637838,240.237838 C119.740541,216.054054 126.518919,193.178378 130.756757,180.940541 Z" id="Shape" fill="#303E48"></path>
                <path d="M132.572973,271.124324 L44.7783784,296.205405 C49.3297297,353.740541 77.3297297,399.956757 125.351351,386.983784 C175.351351,373.47027 152.497297,305.535135 132.908108,271.751351 C132.778378,271.545946 132.691892,271.32973 132.572973,271.124324 Z" id="Shape" fill="#4F5D73"></path>
            </g>
            <g id="Group" transform="translate(233.027027, 0.000000)">
                <path d="M25.4054054,180.832432 C19.3297297,163.264865 7.83783784,134.216216 24.0540541,78.1297297 C40.2702703,22.0432432 63.9243243,0.12972973 96.3567568,0.12972973 C96.3567568,0.12972973 152.064865,-2.92972973 155.816216,85.5675676 C159.967568,183.394595 125.643243,207.416216 114.875676,263.372973 L33.5243243,240.12973 C36.4216216,215.945946 29.6432432,193.07027 25.4054054,180.832432 Z" id="Shape" fill="#303E48"></path>
                <path d="M23.5891892,271.016216 L111.383784,296.097297 C106.832432,353.632432 78.8324324,399.848649 30.8108108,386.875676 C-19.1891892,373.362162 3.66486486,305.427027 23.2540541,271.643243 C23.3837838,271.437838 23.4702703,271.221622 23.5891892,271.016216 Z" id="Shape" fill="#4F5D73"></path>
            </g>
        </g>
    </g>
</svg>